<svg viewBox="0 0 770 738" xmlns="http://www.w3.org/2000/svg" font-family="-apple-system, BlinkMacSystemFont, 'Segoe UI', Roboto, sans-serif">
  <defs>
    <linearGradient id="lineGrad" x1="0" y1="0" x2="0" y2="1">
      <stop offset="0%" stop-color="#667eea"/>
      <stop offset="100%" stop-color="#764ba2"/>
    </linearGradient>
    <filter id="soft" x="-20%" y="-20%" width="140%" height="140%">
      <feDropShadow dx="0" dy="2" stdDeviation="4" flood-color="#667eea" flood-opacity="0.14"/>
    </filter>
    <marker id="arrow" viewBox="0 0 10 10" refX="8" refY="5" markerWidth="7" markerHeight="7" orient="auto-start-reverse">
      <path d="M0,0 L10,5 L0,10 z" fill="#9aa0c4"/>
    </marker>
  </defs>
  <rect width="770" height="738" fill="white"/>
<path d="M358,80 C358,195.5 230,195.5 230,311" stroke="#9aa0c4" stroke-width="2" fill="none" marker-end="url(#arrow)"/>

<path d="M385,338 C294,338 294,402 203,402" stroke="#9aa0c4" stroke-width="2" fill="none" marker-end="url(#arrow)"/>

<path d="M385,220 C385,311 203,311 203,402" stroke="#9aa0c4" stroke-width="2" fill="none" marker-end="url(#arrow)"/>

<path d="M567,102 C476,102 476,166 385,166" stroke="#9aa0c4" stroke-width="2" fill="none" marker-end="url(#arrow)"/>

<path d="M385,220 C385,252 385,252 385,284" stroke="#9aa0c4" stroke-width="2" fill="none" marker-end="url(#arrow)"/>

<path d="M540,311 C476,311 476,434 412,434" stroke="#9aa0c4" stroke-width="2" fill="none" marker-end="url(#arrow)"/>

<rect x="48" y="48" width="310" height="64" rx="10" fill="#f3f4fb" stroke="none" stroke-width="0" filter="url(#soft)"/>
<rect x="48" y="48" width="6" height="64" rx="3" fill="url(#lineGrad)"/>
<text x="203" y="75.5" text-anchor="middle" font-size="13" font-weight="400" fill="#2f3142">Request for document or</text>
<text x="203" y="92.5" text-anchor="middle" font-size="13" font-weight="400" fill="#2f3142">element</text>
<rect x="230" y="284" width="310" height="54" rx="10" fill="#f3f4fb" stroke="none" stroke-width="0" filter="url(#soft)"/>
<rect x="230" y="284" width="6" height="54" rx="3" fill="url(#lineGrad)"/>
<text x="385" y="315" text-anchor="middle" font-size="13" font-weight="400" fill="#2f3142">L0 converted-object cache</text>
<rect x="230" y="166" width="310" height="54" rx="10" fill="#f3f4fb" stroke="none" stroke-width="0" filter="url(#soft)"/>
<rect x="230" y="166" width="6" height="54" rx="3" fill="url(#lineGrad)"/>
<text x="385" y="197" text-anchor="middle" font-size="13" font-weight="400" fill="#2f3142">HybridCache entry</text>
<rect x="48" y="402" width="310" height="54" rx="10" fill="#f3f4fb" stroke="none" stroke-width="0" filter="url(#soft)"/>
<rect x="48" y="402" width="6" height="54" rx="3" fill="url(#lineGrad)"/>
<text x="203" y="433" text-anchor="middle" font-size="13" font-weight="400" fill="#2f3142">miss</text>
<rect x="412" y="48" width="310" height="54" rx="10" fill="#f3f4fb" stroke="none" stroke-width="0" filter="url(#soft)"/>
<rect x="412" y="48" width="6" height="54" rx="3" fill="url(#lineGrad)"/>
<text x="567" y="79" text-anchor="middle" font-size="13" font-weight="400" fill="#2f3142">Database-backed cache source</text>
<rect x="412" y="402" width="310" height="64" rx="10" fill="#f3f4fb" stroke="none" stroke-width="0" filter="url(#soft)"/>
<rect x="412" y="402" width="6" height="64" rx="3" fill="url(#lineGrad)"/>
<text x="567" y="429.5" text-anchor="middle" font-size="13" font-weight="400" fill="#2f3142">Return IPublishedContent or</text>
<text x="567" y="446.5" text-anchor="middle" font-size="13" font-weight="400" fill="#2f3142">IPublishedElement</text>
</svg>
