<svg viewBox="0 0 680 592" xmlns="http://www.w3.org/2000/svg" font-family="-apple-system, BlinkMacSystemFont, 'Segoe UI', Roboto, sans-serif">
  <defs>
    <linearGradient id="lineGrad" x1="0" y1="0" x2="0" y2="1">
      <stop offset="0%" stop-color="#e35aa0"/>
      <stop offset="100%" stop-color="#b83a86"/>
    </linearGradient>
    <filter id="soft" x="-20%" y="-20%" width="140%" height="140%">
      <feDropShadow dx="0" dy="2" stdDeviation="4" flood-color="#e35aa0" flood-opacity="0.14"/>
    </filter>
    <marker id="arrow" viewBox="0 0 10 10" refX="8" refY="5" markerWidth="7" markerHeight="7" orient="auto-start-reverse">
      <path d="M0,0 L10,5 L0,10 z" fill="#cf95b6"/>
    </marker>
  </defs>
  <rect width="680" height="592" fill="white"/>
<path d="M258,252 C258,181 336,181 336,110" stroke="#cf95b6" stroke-width="2" fill="none" marker-end="url(#arrow)"/>

<path d="M258,252 C297,252 297,198 336,198" stroke="#cf95b6" stroke-width="2" fill="none" marker-end="url(#arrow)"/>

<path d="M258,340 C297,340 297,286 336,286" stroke="#cf95b6" stroke-width="2" fill="none" marker-end="url(#arrow)"/>

<path d="M258,340 C297,340 297,409 336,409" stroke="#cf95b6" stroke-width="2" fill="none" marker-end="url(#arrow)"/>

<path d="M258,340 C258,423.5 336,423.5 336,507" stroke="#cf95b6" stroke-width="2" fill="none" marker-end="url(#arrow)"/>

<rect x="48" y="225" width="210" height="54" rx="10" fill="#fdf1f7" stroke="none" stroke-width="0" filter="url(#soft)"/>
<rect x="48" y="225" width="6" height="54" rx="3" fill="url(#lineGrad)"/>
<text x="153" y="256" text-anchor="middle" font-size="13" font-weight="400" fill="#2f3142">Old mental model</text>
<rect x="336" y="83" width="210" height="54" rx="10" fill="#fdf1f7" stroke="none" stroke-width="0" filter="url(#soft)"/>
<rect x="336" y="83" width="6" height="54" rx="3" fill="url(#lineGrad)"/>
<text x="441" y="114" text-anchor="middle" font-size="13" font-weight="400" fill="#2f3142">Traverse freely</text>
<rect x="336" y="171" width="210" height="54" rx="10" fill="#fdf1f7" stroke="none" stroke-width="0" filter="url(#soft)"/>
<rect x="336" y="171" width="6" height="54" rx="3" fill="url(#lineGrad)"/>
<text x="441" y="202" text-anchor="middle" font-size="13" font-weight="400" fill="#2f3142">Assume content is already warm</text>
<rect x="48" y="313" width="210" height="54" rx="10" fill="#fdf1f7" stroke="none" stroke-width="0" filter="url(#soft)"/>
<rect x="48" y="313" width="6" height="54" rx="3" fill="url(#lineGrad)"/>
<text x="153" y="344" text-anchor="middle" font-size="13" font-weight="400" fill="#2f3142">New mental model</text>
<rect x="336" y="259" width="210" height="54" rx="10" fill="#fdf1f7" stroke="none" stroke-width="0" filter="url(#soft)"/>
<rect x="336" y="259" width="6" height="54" rx="3" fill="url(#lineGrad)"/>
<text x="441" y="290" text-anchor="middle" font-size="13" font-weight="400" fill="#2f3142">Seed what matters</text>
<rect x="336" y="377" width="210" height="64" rx="10" fill="#fdf1f7" stroke="none" stroke-width="0" filter="url(#soft)"/>
<rect x="336" y="377" width="6" height="64" rx="3" fill="url(#lineGrad)"/>
<text x="441" y="404.5" text-anchor="middle" font-size="13" font-weight="400" fill="#2f3142">Use cache, DTOs, or index</text>
<text x="441" y="421.5" text-anchor="middle" font-size="13" font-weight="400" fill="#2f3142">intentionally</text>
<rect x="336" y="475" width="210" height="64" rx="10" fill="#fdf1f7" stroke="none" stroke-width="0" filter="url(#soft)"/>
<rect x="336" y="475" width="6" height="64" rx="3" fill="url(#lineGrad)"/>
<text x="441" y="502.5" text-anchor="middle" font-size="13" font-weight="400" fill="#2f3142">Be suspicious of broad</text>
<text x="441" y="519.5" text-anchor="middle" font-size="13" font-weight="400" fill="#2f3142">traversal</text>
</svg>
