<svg viewBox="0 0 624 624" xmlns="http://www.w3.org/2000/svg" font-family="-apple-system, BlinkMacSystemFont, 'Segoe UI', Roboto, sans-serif">
  <defs>
    <linearGradient id="lineGrad" x1="0" y1="0" x2="0" y2="1">
      <stop offset="0%" stop-color="#667eea"/>
      <stop offset="100%" stop-color="#764ba2"/>
    </linearGradient>
    <filter id="soft" x="-20%" y="-20%" width="140%" height="140%">
      <feDropShadow dx="0" dy="2" stdDeviation="4" flood-color="#667eea" flood-opacity="0.14"/>
    </filter>
    <marker id="arrow" viewBox="0 0 10 10" refX="8" refY="5" markerWidth="7" markerHeight="7" orient="auto-start-reverse">
      <path d="M0,0 L10,5 L0,10 z" fill="#9aa0c4"/>
    </marker>
  </defs>
  <rect width="624" height="624" fill="white"/>
<rect x="-4" y="34" width="104" height="44" rx="10" fill="#f3f4fb" filter="url(#soft)"/>
<text x="48" y="61" text-anchor="middle" font-size="12" font-weight="600" fill="#2f3142">Caller A</text>
<path d="M48,78 V590" stroke="#dde1f2" stroke-width="2" stroke-dasharray="6 6"/>
<rect x="128" y="34" width="104" height="44" rx="10" fill="#f3f4fb" filter="url(#soft)"/>
<text x="180" y="61" text-anchor="middle" font-size="12" font-weight="600" fill="#2f3142">Caller B</text>
<path d="M180,78 V590" stroke="#dde1f2" stroke-width="2" stroke-dasharray="6 6"/>
<rect x="260" y="34" width="104" height="44" rx="10" fill="#f3f4fb" filter="url(#soft)"/>
<text x="312" y="61" text-anchor="middle" font-size="12" font-weight="600" fill="#2f3142">Caller C</text>
<path d="M312,78 V590" stroke="#dde1f2" stroke-width="2" stroke-dasharray="6 6"/>
<rect x="392" y="34" width="104" height="44" rx="10" fill="#f3f4fb" filter="url(#soft)"/>
<text x="444" y="61" text-anchor="middle" font-size="12" font-weight="600" fill="#2f3142">HybridCache</text>
<path d="M444,78 V590" stroke="#dde1f2" stroke-width="2" stroke-dasharray="6 6"/>
<rect x="524" y="34" width="104" height="44" rx="10" fill="#f3f4fb" filter="url(#soft)"/>
<text x="576" y="61" text-anchor="middle" font-size="12" font-weight="600" fill="#2f3142">Factory (expensive)</text>
<path d="M576,78 V590" stroke="#dde1f2" stroke-width="2" stroke-dasharray="6 6"/>
<path d="M48,118 H444" stroke="#9aa0c4" stroke-width="2" fill="none" marker-end="url(#arrow)"/>
<text x="246" y="107" text-anchor="middle" font-size="11" font-weight="400" fill="#2f3142">GetOrCreateAsync(&quot;k&quot;)</text>
<path d="M180,172 H444" stroke="#9aa0c4" stroke-width="2" fill="none" marker-end="url(#arrow)"/>
<text x="312" y="161" text-anchor="middle" font-size="11" font-weight="400" fill="#2f3142">GetOrCreateAsync(&quot;k&quot;)</text>
<path d="M312,226 H444" stroke="#9aa0c4" stroke-width="2" fill="none" marker-end="url(#arrow)"/>
<text x="378" y="215" text-anchor="middle" font-size="11" font-weight="400" fill="#2f3142">GetOrCreateAsync(&quot;k&quot;)</text>
<rect x="342" y="255" width="204" height="42" rx="9" fill="#fff7e8" stroke="#e2b568"/>
<text x="444" y="281" text-anchor="middle" font-size="11" font-weight="400" fill="#2f3142">One miss, three callers</text>
<path d="M444,334 H576" stroke="#9aa0c4" stroke-width="2" fill="none" marker-end="url(#arrow)"/>
<text x="510" y="314.5" text-anchor="middle" font-size="11" font-weight="400" fill="#2f3142">Invoke factory ONCE (combined</text>
<text x="510" y="331.5" text-anchor="middle" font-size="11" font-weight="400" fill="#2f3142">cancellation)</text>
<path d="M576,388 H444" stroke="#9aa0c4" stroke-width="2" stroke-dasharray="5 5" fill="none" marker-end="url(#arrow)"/>
<text x="510" y="377" text-anchor="middle" font-size="11" font-weight="400" fill="#2f3142">Value</text>
<path d="M444,442 H48" stroke="#9aa0c4" stroke-width="2" stroke-dasharray="5 5" fill="none" marker-end="url(#arrow)"/>
<text x="246" y="431" text-anchor="middle" font-size="11" font-weight="400" fill="#2f3142">Value</text>
<path d="M444,496 H180" stroke="#9aa0c4" stroke-width="2" stroke-dasharray="5 5" fill="none" marker-end="url(#arrow)"/>
<text x="312" y="485" text-anchor="middle" font-size="11" font-weight="400" fill="#2f3142">Value</text>
<path d="M444,550 H312" stroke="#9aa0c4" stroke-width="2" stroke-dasharray="5 5" fill="none" marker-end="url(#arrow)"/>
<text x="378" y="539" text-anchor="middle" font-size="11" font-weight="400" fill="#2f3142">Value</text>
</svg>
