<svg viewBox="0 0 640 392" xmlns="http://www.w3.org/2000/svg" font-family="-apple-system, BlinkMacSystemFont, 'Segoe UI', Roboto, sans-serif">
  <defs>
    <linearGradient id="lineGrad" x1="0" y1="0" x2="0" y2="1">
      <stop offset="0%" stop-color="#e35aa0"/>
      <stop offset="100%" stop-color="#b83a86"/>
    </linearGradient>
    <filter id="soft" x="-20%" y="-20%" width="140%" height="140%">
      <feDropShadow dx="0" dy="2" stdDeviation="4" flood-color="#e35aa0" flood-opacity="0.14"/>
    </filter>
    <marker id="arrow" viewBox="0 0 10 10" refX="8" refY="5" markerWidth="7" markerHeight="7" orient="auto-start-reverse">
      <path d="M0,0 L10,5 L0,10 z" fill="#cf95b6"/>
    </marker>
  </defs>
  <rect width="640" height="392" fill="white"/>

  <!-- connectors: straight vertical, no crossings -->
  <path d="M320,84 V124" stroke="#cf95b6" stroke-width="2" fill="none" marker-end="url(#arrow)"/>
  <path d="M320,184 V224" stroke="#cf95b6" stroke-width="2" fill="none" marker-end="url(#arrow)"/>
  <text x="332" y="208" font-size="11" font-style="italic" fill="#6b708c">miss</text>
  <path d="M320,276 V316" stroke="#cf95b6" stroke-width="2" fill="none" marker-end="url(#arrow)"/>
  <text x="332" y="300" font-size="11" font-style="italic" fill="#6b708c">miss</text>

  <!-- box 1: the request -->
  <rect x="170" y="24" width="300" height="60" rx="10" fill="#fdf1f7" filter="url(#soft)"/>
  <rect x="170" y="24" width="6" height="60" rx="3" fill="url(#lineGrad)"/>
  <text x="320" y="46" text-anchor="middle" font-size="13" fill="#2f3142">Your code or Razor asks for</text>
  <text x="320" y="63" text-anchor="middle" font-size="13" fill="#2f3142">published content</text>

  <!-- box 2: layer 1 -->
  <rect x="170" y="124" width="300" height="60" rx="10" fill="#fdf1f7" filter="url(#soft)"/>
  <rect x="170" y="124" width="6" height="60" rx="3" fill="url(#lineGrad)"/>
  <text x="320" y="146" text-anchor="middle" font-size="13" fill="#2f3142">Published object fast cache</text>
  <text x="320" y="163" text-anchor="middle" font-size="13" fill="#2f3142">in process</text>
  <text x="156" y="150" text-anchor="end" font-size="11" font-weight="600" fill="#e35aa0">Layer 1</text>
  <text x="156" y="165" text-anchor="end" font-size="10" fill="#6b708c">fastest</text>

  <!-- box 3: layer 2 -->
  <rect x="170" y="224" width="300" height="52" rx="10" fill="#fdf1f7" filter="url(#soft)"/>
  <rect x="170" y="224" width="6" height="52" rx="3" fill="url(#lineGrad)"/>
  <text x="320" y="254" text-anchor="middle" font-size="13" fill="#2f3142">HybridCache entry</text>
  <text x="156" y="246" text-anchor="end" font-size="11" font-weight="600" fill="#e35aa0">Layer 2</text>
  <text x="156" y="261" text-anchor="end" font-size="10" fill="#6b708c">L1 + optional L2</text>

  <!-- box 4: layer 3 -->
  <rect x="170" y="316" width="300" height="52" rx="10" fill="#fdf1f7" filter="url(#soft)"/>
  <rect x="170" y="316" width="6" height="52" rx="3" fill="url(#lineGrad)"/>
  <text x="320" y="346" text-anchor="middle" font-size="13" fill="#2f3142">Database-backed cache source</text>
  <text x="156" y="338" text-anchor="end" font-size="11" font-weight="600" fill="#e35aa0">Layer 3</text>
  <text x="156" y="353" text-anchor="end" font-size="10" fill="#6b708c">repopulates</text>
</svg>
