<svg viewBox="0 0 920 360" xmlns="http://www.w3.org/2000/svg" font-family="-apple-system, BlinkMacSystemFont, 'Segoe UI', Roboto, sans-serif">
  <defs>
    <linearGradient id="lineGrad" x1="0" y1="0" x2="0" y2="1">
      <stop offset="0%" stop-color="#e35aa0"/>
      <stop offset="100%" stop-color="#b83a86"/>
    </linearGradient>
    <filter id="soft" x="-20%" y="-20%" width="140%" height="140%">
      <feDropShadow dx="0" dy="2" stdDeviation="4" flood-color="#e35aa0" flood-opacity="0.14"/>
    </filter>
    <marker id="arrow" viewBox="0 0 10 10" refX="8" refY="5" markerWidth="7" markerHeight="7" orient="auto">
      <path d="M0,0 L10,5 L0,10 z" fill="#c98cae"/>
    </marker>
  </defs>

  <rect width="920" height="360" fill="white"/>

  <text x="460" y="38" text-anchor="middle" font-size="18" font-weight="700" fill="#2f3142">Search keeps derived data fresh</text>
  <text x="460" y="60" text-anchor="middle" font-size="12" fill="#6b708c">A content change becomes a distributed indexing instruction, then each node updates its own index view.</text>

  <rect x="54" y="104" width="190" height="66" rx="8" fill="#fdf1f7" filter="url(#soft)"/>
  <rect x="54" y="104" width="6" height="66" rx="3" fill="url(#lineGrad)"/>
  <text x="149" y="130" text-anchor="middle" font-size="12" fill="#2f3142">Content saved,</text>
  <text x="149" y="146" text-anchor="middle" font-size="12" fill="#2f3142">published, moved,</text>
  <text x="149" y="162" text-anchor="middle" font-size="12" fill="#2f3142">or deleted</text>

  <rect x="274" y="104" width="190" height="66" rx="8" fill="#fdf1f7" filter="url(#soft)"/>
  <rect x="274" y="104" width="6" height="66" rx="3" fill="url(#lineGrad)"/>
  <text x="369" y="132" text-anchor="middle" font-size="12" fill="#2f3142">Search cache</text>
  <text x="369" y="148" text-anchor="middle" font-size="12" fill="#2f3142">refresher payload</text>

  <rect x="494" y="104" width="190" height="66" rx="8" fill="#fdf1f7" filter="url(#soft)"/>
  <rect x="494" y="104" width="6" height="66" rx="3" fill="url(#lineGrad)"/>
  <text x="589" y="132" text-anchor="middle" font-size="12" fill="#2f3142">DistributedCache</text>
  <text x="589" y="148" text-anchor="middle" font-size="12" fill="#2f3142">broadcasts instruction</text>

  <rect x="714" y="104" width="152" height="66" rx="8" fill="#fdf1f7" filter="url(#soft)"/>
  <rect x="714" y="104" width="6" height="66" rx="3" fill="url(#lineGrad)"/>
  <text x="790" y="132" text-anchor="middle" font-size="12" fill="#2f3142">Each server</text>
  <text x="790" y="148" text-anchor="middle" font-size="12" fill="#2f3142">hears it</text>

  <rect x="126" y="236" width="190" height="66" rx="8" fill="#fdeff6" stroke="#f5d9e8" stroke-width="1.5"/>
  <text x="221" y="260" text-anchor="middle" font-size="12" font-weight="700" fill="#e35aa0">Update</text>
  <text x="221" y="278" text-anchor="middle" font-size="12" fill="#2f3142">changed index entries</text>

  <rect x="366" y="236" width="190" height="66" rx="8" fill="#fdeff6" stroke="#f5d9e8" stroke-width="1.5"/>
  <text x="461" y="260" text-anchor="middle" font-size="12" font-weight="700" fill="#e35aa0">Delete</text>
  <text x="461" y="278" text-anchor="middle" font-size="12" fill="#2f3142">removed index entries</text>

  <rect x="606" y="236" width="190" height="66" rx="8" fill="#fdeff6" stroke="#f5d9e8" stroke-width="1.5"/>
  <text x="701" y="260" text-anchor="middle" font-size="12" font-weight="700" fill="#e35aa0">Rebuild</text>
  <text x="701" y="278" text-anchor="middle" font-size="12" fill="#2f3142">when the cache is too stale</text>

  <g stroke="#c98cae" stroke-width="2" stroke-linecap="round" stroke-linejoin="round" fill="none" marker-end="url(#arrow)">
    <path d="M244 137 H266"/>
    <path d="M464 137 H486"/>
    <path d="M684 137 H706"/>
    <path d="M790 170 V204 H221 V228"/>
    <path d="M790 204 H461 V228"/>
    <path d="M790 204 H701 V228"/>
  </g>

  <text x="460" y="338" text-anchor="middle" font-size="12" fill="#6b708c">The index is derived data: the source of truth is still content, but the search copy must be deliberately refreshed.</text>
</svg>
