<svg viewBox="0 0 860 680" xmlns="http://www.w3.org/2000/svg" font-family="-apple-system, BlinkMacSystemFont, 'Segoe UI', Roboto, sans-serif">
  <defs>
    <linearGradient id="lineGrad" x1="0" y1="0" x2="0" y2="1">
      <stop offset="0%" stop-color="#667eea"/>
      <stop offset="100%" stop-color="#764ba2"/>
    </linearGradient>
    <filter id="soft" x="-20%" y="-20%" width="140%" height="140%">
      <feDropShadow dx="0" dy="2" stdDeviation="4" flood-color="#667eea" flood-opacity="0.14"/>
    </filter>
    <marker id="arrow" viewBox="0 0 10 10" refX="8" refY="5" markerWidth="7" markerHeight="7" orient="auto-start-reverse">
      <path d="M0,0 L10,5 L0,10 z" fill="#9aa0c4"/>
    </marker>
  </defs>
  <rect width="860" height="680" fill="white"/>

  <!-- spine connectors -->
  <path d="M430,64 V84" stroke="#9aa0c4" stroke-width="2" fill="none" marker-end="url(#arrow)"/>
  <path d="M610,106 H670" stroke="#9aa0c4" stroke-width="2" fill="none" marker-end="url(#arrow)"/>
  <text x="640" y="98" text-anchor="middle" font-size="11" fill="#6b708c">No</text>
  <path d="M430,128 V170" stroke="#9aa0c4" stroke-width="2" fill="none" marker-end="url(#arrow)"/>
  <text x="444" y="152" font-size="11" fill="#6b708c">Yes</text>

  <!-- comb from Q2 to the seven outcome rows -->
  <path d="M430,214 V230 H100 V542" stroke="#9aa0c4" stroke-width="2" fill="none"/>
  <path d="M100,266 H120" stroke="#9aa0c4" stroke-width="2" fill="none" marker-end="url(#arrow)"/>
  <path d="M100,312 H120" stroke="#9aa0c4" stroke-width="2" fill="none" marker-end="url(#arrow)"/>
  <path d="M100,358 H120" stroke="#9aa0c4" stroke-width="2" fill="none" marker-end="url(#arrow)"/>
  <path d="M100,404 H120" stroke="#9aa0c4" stroke-width="2" fill="none" marker-end="url(#arrow)"/>
  <path d="M100,450 H120" stroke="#9aa0c4" stroke-width="2" fill="none" marker-end="url(#arrow)"/>
  <path d="M100,496 H120" stroke="#9aa0c4" stroke-width="2" fill="none" marker-end="url(#arrow)"/>
  <path d="M100,542 H120" stroke="#9aa0c4" stroke-width="2" fill="none" marker-end="url(#arrow)"/>

  <!-- START -->
  <rect x="270" y="20" width="320" height="44" rx="10" fill="#f3f4fb" filter="url(#soft)"/>
  <rect x="270" y="20" width="6" height="44" rx="3" fill="url(#lineGrad)"/>
  <text x="430" y="46" text-anchor="middle" font-size="13" font-weight="500" fill="#2f3142">Something is wrong with a cached value</text>

  <!-- Q1 decision -->
  <rect x="250" y="84" width="360" height="44" rx="22" fill="white" stroke="#667eea" stroke-width="2" stroke-dasharray="5 4"/>
  <text x="430" y="110" text-anchor="middle" font-size="13" font-weight="600" fill="#2f3142">Is the value the same on every server?</text>

  <!-- DIST (Q1 No) -->
  <rect x="670" y="82" width="180" height="48" rx="10" fill="#f3f4fb" filter="url(#soft)"/>
  <rect x="670" y="82" width="6" height="48" rx="3" fill="url(#lineGrad)"/>
  <text x="763" y="101" text-anchor="middle" font-size="12" fill="#2f3142">Distributed invalidation</text>
  <text x="763" y="117" text-anchor="middle" font-size="11" fill="#667eea">Chapter 9</text>

  <!-- Q2 decision -->
  <rect x="250" y="170" width="360" height="44" rx="22" fill="white" stroke="#667eea" stroke-width="2" stroke-dasharray="5 4"/>
  <text x="430" y="196" text-anchor="middle" font-size="13" font-weight="600" fill="#2f3142">What kind of value is stale or slow?</text>

  <!-- seven outcome rows -->
  <!-- row template: pale pill, gradient bar, condition (left), divider, layer (mid), chapter (right) -->
  <g font-size="12.5">
    <rect x="120" y="246" width="620" height="40" rx="9" fill="#f3f4fb" filter="url(#soft)"/>
    <rect x="120" y="246" width="6" height="40" rx="3" fill="url(#lineGrad)"/>
    <text x="148" y="270" fill="#2f3142">Whole HTML page</text>
    <line x1="392" y1="256" x2="392" y2="276" stroke="#dde1f2"/>
    <text x="410" y="270" fill="#2f3142" font-weight="500">Website output cache</text>
    <text x="726" y="270" text-anchor="end" fill="#667eea">Ch 3</text>

    <rect x="120" y="292" width="620" height="40" rx="9" fill="#f3f4fb" filter="url(#soft)"/>
    <rect x="120" y="292" width="6" height="40" rx="3" fill="url(#lineGrad)"/>
    <text x="148" y="316" fill="#2f3142">JSON / headless response</text>
    <line x1="392" y1="302" x2="392" y2="322" stroke="#dde1f2"/>
    <text x="410" y="316" fill="#2f3142" font-weight="500">Content Delivery API cache</text>
    <text x="726" y="316" text-anchor="end" fill="#667eea">Ch 4</text>

    <rect x="120" y="338" width="620" height="40" rx="9" fill="#f3f4fb" filter="url(#soft)"/>
    <rect x="120" y="338" width="6" height="40" rx="3" fill="url(#lineGrad)"/>
    <text x="148" y="362" fill="#2f3142">IPublishedContent in code</text>
    <line x1="392" y1="348" x2="392" y2="368" stroke="#dde1f2"/>
    <text x="410" y="362" fill="#2f3142" font-weight="500">Published-content cache</text>
    <text x="726" y="362" text-anchor="end" fill="#667eea">Ch 6</text>

    <rect x="120" y="384" width="620" height="40" rx="9" fill="#f3f4fb" filter="url(#soft)"/>
    <rect x="120" y="384" width="6" height="40" rx="3" fill="url(#lineGrad)"/>
    <text x="148" y="408" fill="#2f3142">Search result</text>
    <line x1="392" y1="394" x2="392" y2="414" stroke="#dde1f2"/>
    <text x="410" y="408" fill="#2f3142" font-weight="500">Examine / Search index</text>
    <text x="726" y="408" text-anchor="end" fill="#667eea">Ch 14</text>

    <rect x="120" y="430" width="620" height="40" rx="9" fill="#f3f4fb" filter="url(#soft)"/>
    <rect x="120" y="430" width="6" height="40" rx="3" fill="url(#lineGrad)"/>
    <text x="148" y="454" fill="#2f3142">Media / image</text>
    <line x1="392" y1="440" x2="392" y2="460" stroke="#dde1f2"/>
    <text x="410" y="454" fill="#2f3142" font-weight="500">Media / storage cache</text>
    <text x="726" y="454" text-anchor="end" fill="#667eea">Ch 13</text>

    <rect x="120" y="476" width="620" height="40" rx="9" fill="#f3f4fb" filter="url(#soft)"/>
    <rect x="120" y="476" width="6" height="40" rx="3" fill="url(#lineGrad)"/>
    <text x="148" y="500" fill="#2f3142">My own cached data</text>
    <line x1="392" y1="486" x2="392" y2="506" stroke="#dde1f2"/>
    <text x="410" y="500" fill="#2f3142" font-weight="500">Application cache</text>
    <text x="726" y="500" text-anchor="end" fill="#667eea">Ch 12</text>

    <rect x="120" y="522" width="620" height="40" rx="9" fill="#f3f4fb" filter="url(#soft)"/>
    <rect x="120" y="522" width="6" height="40" rx="3" fill="url(#lineGrad)"/>
    <text x="148" y="546" fill="#2f3142">Slow first request / rebuild</text>
    <line x1="392" y1="532" x2="392" y2="552" stroke="#dde1f2"/>
    <text x="410" y="546" fill="#2f3142" font-weight="500">Seeding / warm-up</text>
    <text x="726" y="546" text-anchor="end" fill="#667eea">Ch 11</text>
  </g>

  <!-- browser follow-up note (scoped to HTML / JSON) -->
  <rect x="120" y="586" width="620" height="70" rx="10" fill="#fff7e8" stroke="#d39b3d" stroke-width="1.5"/>
  <text x="140" y="608" font-size="11" font-weight="600" fill="#b07d1e">Only for a whole HTML page or a JSON response</text>
  <text x="140" y="628" font-size="12" fill="#2f3142">Correct on the server but stale in the browser? &#8594; Browser / proxy / CDN cache (Chapter 1).</text>
  <text x="140" y="646" font-size="12" fill="#6b708c">If it is wrong on the server too, the fix is at the layer above.</text>
</svg>
