<svg viewBox="0 0 620 364" xmlns="http://www.w3.org/2000/svg" font-family="-apple-system, BlinkMacSystemFont, 'Segoe UI', Roboto, sans-serif">
  <defs>
    <linearGradient id="lineGrad" x1="0" y1="0" x2="0" y2="1">
      <stop offset="0%" stop-color="#e35aa0"/>
      <stop offset="100%" stop-color="#b83a86"/>
    </linearGradient>
    <filter id="soft" x="-20%" y="-20%" width="140%" height="140%">
      <feDropShadow dx="0" dy="2" stdDeviation="4" flood-color="#e35aa0" flood-opacity="0.14"/>
    </filter>
    <marker id="arrow" viewBox="0 0 10 10" refX="8" refY="5" markerWidth="7" markerHeight="7" orient="auto-start-reverse">
      <path d="M0,0 L10,5 L0,10 z" fill="#cf95b6"/>
    </marker>
  </defs>
  <rect width="620" height="364" fill="white"/>
<rect x="10" y="34" width="120" height="60" rx="10" fill="#fdf1f7" filter="url(#soft)"/>
<text x="70" y="59.5" text-anchor="middle" font-size="12" font-weight="600" fill="#2f3142">Content type</text>
<text x="70" y="76.5" text-anchor="middle" font-size="12" font-weight="600" fill="#2f3142">save</text>
<path d="M70,94 V344" stroke="#f5d9e8" stroke-width="2" stroke-dasharray="6 6"/>
<rect x="164" y="34" width="120" height="60" rx="10" fill="#fdf1f7" filter="url(#soft)"/>
<text x="224" y="68" text-anchor="middle" font-size="12" font-weight="600" fill="#2f3142">Cache</text>
<path d="M224,94 V344" stroke="#f5d9e8" stroke-width="2" stroke-dasharray="6 6"/>
<rect x="318" y="34" width="120" height="60" rx="10" fill="#fdf1f7" filter="url(#soft)"/>
<text x="378" y="68" text-anchor="middle" font-size="12" font-weight="600" fill="#2f3142">User request</text>
<path d="M378,94 V344" stroke="#f5d9e8" stroke-width="2" stroke-dasharray="6 6"/>
<rect x="472" y="34" width="120" height="60" rx="10" fill="#fdf1f7" filter="url(#soft)"/>
<text x="532" y="59.5" text-anchor="middle" font-size="12" font-weight="600" fill="#2f3142">Background</text>
<text x="532" y="76.5" text-anchor="middle" font-size="12" font-weight="600" fill="#2f3142">rebuild</text>
<path d="M532,94 V344" stroke="#f5d9e8" stroke-width="2" stroke-dasharray="6 6"/>
<path d="M70,145 H224" stroke="#cf95b6" stroke-width="2" fill="none" marker-end="url(#arrow)"/>
<text x="147" y="121" text-anchor="middle" font-size="11" font-weight="400" fill="#2f3142">Evict relevant cache</text>
<text x="147" y="135" text-anchor="middle" font-size="11" font-weight="400" fill="#2f3142">now</text>
<path d="M378,194 H224" stroke="#cf95b6" stroke-width="2" fill="none" marker-end="url(#arrow)"/>
<text x="301" y="170" text-anchor="middle" font-size="11" font-weight="400" fill="#2f3142">Next request may read</text>
<text x="301" y="184" text-anchor="middle" font-size="11" font-weight="400" fill="#2f3142">older serialised data</text>
<path d="M70,228 H532" stroke="#cf95b6" stroke-width="2" fill="none" marker-end="url(#arrow)"/>
<text x="301" y="218" text-anchor="middle" font-size="11" font-weight="400" fill="#2f3142">Queue deferred rebuild</text>
<path d="M532,277 H224" stroke="#cf95b6" stroke-width="2" fill="none" marker-end="url(#arrow)"/>
<text x="378" y="253" text-anchor="middle" font-size="11" font-weight="400" fill="#2f3142">Rebuild serialised</text>
<text x="378" y="267" text-anchor="middle" font-size="11" font-weight="400" fill="#2f3142">cache data</text>
<path d="M532,326 H224" stroke="#cf95b6" stroke-width="2" fill="none" marker-end="url(#arrow)"/>
<text x="378" y="302" text-anchor="middle" font-size="11" font-weight="400" fill="#2f3142">Evict again after</text>
<text x="378" y="316" text-anchor="middle" font-size="11" font-weight="400" fill="#2f3142">rebuild</text>
</svg>
