<svg viewBox="0 0 770 378" xmlns="http://www.w3.org/2000/svg" font-family="-apple-system, BlinkMacSystemFont, 'Segoe UI', Roboto, sans-serif">
  <defs>
    <linearGradient id="lineGrad" x1="0" y1="0" x2="0" y2="1">
      <stop offset="0%" stop-color="#667eea"/>
      <stop offset="100%" stop-color="#764ba2"/>
    </linearGradient>
    <filter id="soft" x="-20%" y="-20%" width="140%" height="140%">
      <feDropShadow dx="0" dy="2" stdDeviation="4" flood-color="#667eea" flood-opacity="0.14"/>
    </filter>
    <marker id="arrow" viewBox="0 0 10 10" refX="8" refY="5" markerWidth="7" markerHeight="7" orient="auto-start-reverse">
      <path d="M0,0 L10,5 L0,10 z" fill="#9aa0c4"/>
    </marker>
  </defs>
  <rect width="770" height="378" fill="white"/>
<path d="M358,64 C358,149 230,149 230,234" stroke="#9aa0c4" stroke-width="2" fill="none" marker-end="url(#arrow)"/>

<path d="M385,266 C385,279 385,279 385,292" stroke="#9aa0c4" stroke-width="2" fill="none" marker-end="url(#arrow)"/>

<path d="M385,176 C385,234 385,234 385,292" stroke="#9aa0c4" stroke-width="2" fill="none" marker-end="url(#arrow)"/>

<path d="M567,86 C476,86 476,122 385,122" stroke="#9aa0c4" stroke-width="2" fill="none" marker-end="url(#arrow)"/>

<path d="M385,176 C385,189 385,189 385,202" stroke="#9aa0c4" stroke-width="2" fill="none" marker-end="url(#arrow)"/>

<rect x="48" y="32" width="310" height="64" rx="10" fill="#f3f4fb" stroke="none" stroke-width="0" filter="url(#soft)"/>
<rect x="48" y="32" width="6" height="64" rx="3" fill="url(#lineGrad)"/>
<text x="203" y="59.5" text-anchor="middle" font-size="13" font-weight="400" fill="#2f3142">Your code or Razor asks for</text>
<text x="203" y="76.5" text-anchor="middle" font-size="13" font-weight="400" fill="#2f3142">published content</text>
<rect x="230" y="202" width="310" height="64" rx="10" fill="#f3f4fb" stroke="none" stroke-width="0" filter="url(#soft)"/>
<rect x="230" y="202" width="6" height="64" rx="3" fill="url(#lineGrad)"/>
<text x="385" y="229.5" text-anchor="middle" font-size="13" font-weight="400" fill="#2f3142">Published object fast cache in</text>
<text x="385" y="246.5" text-anchor="middle" font-size="13" font-weight="400" fill="#2f3142">process</text>
<rect x="230" y="122" width="310" height="54" rx="10" fill="#f3f4fb" stroke="none" stroke-width="0" filter="url(#soft)"/>
<rect x="230" y="122" width="6" height="54" rx="3" fill="url(#lineGrad)"/>
<text x="385" y="153" text-anchor="middle" font-size="13" font-weight="400" fill="#2f3142">HybridCache entry</text>
<rect x="230" y="292" width="310" height="54" rx="10" fill="#f3f4fb" stroke="none" stroke-width="0" filter="url(#soft)"/>
<rect x="230" y="292" width="6" height="54" rx="3" fill="url(#lineGrad)"/>
<text x="385" y="323" text-anchor="middle" font-size="13" font-weight="400" fill="#2f3142">miss</text>
<rect x="412" y="32" width="310" height="54" rx="10" fill="#f3f4fb" stroke="none" stroke-width="0" filter="url(#soft)"/>
<rect x="412" y="32" width="6" height="54" rx="3" fill="url(#lineGrad)"/>
<text x="567" y="63" text-anchor="middle" font-size="13" font-weight="400" fill="#2f3142">Database-backed cache source</text>
</svg>
