<svg viewBox="0 0 1134 1118" xmlns="http://www.w3.org/2000/svg" font-family="-apple-system, BlinkMacSystemFont, 'Segoe UI', Roboto, sans-serif">
  <defs>
    <linearGradient id="lineGrad" x1="0" y1="0" x2="0" y2="1">
      <stop offset="0%" stop-color="#667eea"/>
      <stop offset="100%" stop-color="#764ba2"/>
    </linearGradient>
    <filter id="soft" x="-20%" y="-20%" width="140%" height="140%">
      <feDropShadow dx="0" dy="2" stdDeviation="4" flood-color="#667eea" flood-opacity="0.14"/>
    </filter>
    <marker id="arrow" viewBox="0 0 10 10" refX="8" refY="5" markerWidth="7" markerHeight="7" orient="auto-start-reverse">
      <path d="M0,0 L10,5 L0,10 z" fill="#9aa0c4"/>
    </marker>
  </defs>
  <rect width="1134" height="1118" fill="white"/>
<path d="M567,112 C567,139 567,139 567,166" stroke="#9aa0c4" stroke-width="2" fill="none" marker-end="url(#arrow)"/>

<path d="M567,220 C567,252 567,252 567,284" stroke="#9aa0c4" stroke-width="2" fill="none" marker-end="url(#arrow)"/>

<path d="M567,348 C567,375 567,375 567,402" stroke="#9aa0c4" stroke-width="2" fill="none" marker-end="url(#arrow)"/>

<path d="M567,466 C385,466 385,520 203,520" stroke="#9aa0c4" stroke-width="2" fill="none" marker-end="url(#arrow)"/>

<path d="M567,466 C567,493 567,493 567,520" stroke="#9aa0c4" stroke-width="2" fill="none" marker-end="url(#arrow)"/>

<path d="M722,434 C722,490.5 776,490.5 776,547" stroke="#9aa0c4" stroke-width="2" fill="none" marker-end="url(#arrow)"/>

<path d="M567,584 C385,584 385,638 203,638" stroke="#9aa0c4" stroke-width="2" fill="none" marker-end="url(#arrow)"/>

<path d="M567,584 C567,611 567,611 567,638" stroke="#9aa0c4" stroke-width="2" fill="none" marker-end="url(#arrow)"/>

<path d="M931,574 C931,606 931,606 931,638" stroke="#9aa0c4" stroke-width="2" fill="none" marker-end="url(#arrow)"/>

<rect x="412" y="48" width="310" height="64" rx="10" fill="#f3f4fb" stroke="none" stroke-width="0" filter="url(#soft)"/>
<rect x="412" y="48" width="6" height="64" rx="3" fill="url(#lineGrad)"/>
<text x="567" y="75.5" text-anchor="middle" font-size="13" font-weight="400" fill="#2f3142">Your template / controller</text>
<text x="567" y="92.5" text-anchor="middle" font-size="13" font-weight="400" fill="#2f3142">umbracoHelper.Content(id)</text>
<rect x="412" y="166" width="310" height="54" rx="10" fill="#f3f4fb" stroke="none" stroke-width="0" filter="url(#soft)"/>
<rect x="412" y="166" width="6" height="54" rx="3" fill="url(#lineGrad)"/>
<text x="567" y="197" text-anchor="middle" font-size="13" font-weight="400" fill="#2f3142">ICacheManager</text>
<rect x="412" y="284" width="310" height="64" rx="10" fill="#f3f4fb" stroke="none" stroke-width="0" filter="url(#soft)"/>
<rect x="412" y="284" width="6" height="64" rx="3" fill="url(#lineGrad)"/>
<text x="567" y="311.5" text-anchor="middle" font-size="13" font-weight="400" fill="#2f3142">IPublishedContentCache</text>
<text x="567" y="328.5" text-anchor="middle" font-size="13" font-weight="400" fill="#2f3142">(DocumentCache)</text>
<rect x="412" y="402" width="310" height="64" rx="10" fill="#f3f4fb" stroke="none" stroke-width="0" filter="url(#soft)"/>
<rect x="412" y="402" width="6" height="64" rx="3" fill="url(#lineGrad)"/>
<text x="567" y="429.5" text-anchor="middle" font-size="13" font-weight="400" fill="#2f3142">IDocumentCacheService /</text>
<text x="567" y="446.5" text-anchor="middle" font-size="13" font-weight="400" fill="#2f3142">DocumentCacheService</text>
<rect x="48" y="520" width="310" height="64" rx="10" fill="#f3f4fb" stroke="none" stroke-width="0" filter="url(#soft)"/>
<rect x="48" y="520" width="6" height="64" rx="3" fill="url(#lineGrad)"/>
<text x="203" y="547.5" text-anchor="middle" font-size="13" font-weight="400" fill="#2f3142">L0</text>
<text x="203" y="564.5" text-anchor="middle" font-size="13" font-weight="400" fill="#2f3142">ConvertedPublishedContentCache</text>
<rect x="412" y="520" width="310" height="64" rx="10" fill="#f3f4fb" stroke="none" stroke-width="0" filter="url(#soft)"/>
<rect x="412" y="520" width="6" height="64" rx="3" fill="url(#lineGrad)"/>
<text x="567" y="547.5" text-anchor="middle" font-size="13" font-weight="400" fill="#2f3142">Microsoft HybridCache</text>
<text x="567" y="564.5" text-anchor="middle" font-size="13" font-weight="400" fill="#2f3142">(generic, string-keyed)</text>
<rect x="776" y="520" width="310" height="54" rx="10" fill="#f3f4fb" stroke="none" stroke-width="0" filter="url(#soft)"/>
<rect x="776" y="520" width="6" height="54" rx="3" fill="url(#lineGrad)"/>
<text x="931" y="551" text-anchor="middle" font-size="13" font-weight="400" fill="#2f3142">IDatabaseCacheRepository</text>
<rect x="48" y="638" width="310" height="54" rx="10" fill="#f3f4fb" stroke="none" stroke-width="0" filter="url(#soft)"/>
<rect x="48" y="638" width="6" height="54" rx="3" fill="url(#lineGrad)"/>
<text x="203" y="669" text-anchor="middle" font-size="13" font-weight="400" fill="#2f3142">IMemoryCache (L1)</text>
<rect x="412" y="638" width="310" height="64" rx="10" fill="#f3f4fb" stroke="none" stroke-width="0" filter="url(#soft)"/>
<rect x="412" y="638" width="6" height="64" rx="3" fill="url(#lineGrad)"/>
<text x="567" y="665.5" text-anchor="middle" font-size="13" font-weight="400" fill="#2f3142">IDistributedCache (optional</text>
<text x="567" y="682.5" text-anchor="middle" font-size="13" font-weight="400" fill="#2f3142">L2)</text>
<rect x="776" y="638" width="310" height="54" rx="10" fill="#f3f4fb" stroke="none" stroke-width="0" filter="url(#soft)"/>
<rect x="776" y="638" width="6" height="54" rx="3" fill="url(#lineGrad)"/>
<text x="931" y="669" text-anchor="middle" font-size="13" font-weight="400" fill="#2f3142">umbracoContentNu table</text>
</svg>
