<svg viewBox="0 0 906 524" xmlns="http://www.w3.org/2000/svg" font-family="-apple-system, BlinkMacSystemFont, 'Segoe UI', Roboto, sans-serif">
  <defs>
    <linearGradient id="lineGrad" x1="0" y1="0" x2="0" y2="1">
      <stop offset="0%" stop-color="#e35aa0"/>
      <stop offset="100%" stop-color="#b83a86"/>
    </linearGradient>
    <filter id="soft" x="-20%" y="-20%" width="140%" height="140%">
      <feDropShadow dx="0" dy="2" stdDeviation="4" flood-color="#e35aa0" flood-opacity="0.14"/>
    </filter>
    <marker id="arrow" viewBox="0 0 10 10" refX="8" refY="5" markerWidth="7" markerHeight="7" orient="auto-start-reverse">
      <path d="M0,0 L10,5 L0,10 z" fill="#cf95b6"/>
    </marker>
  </defs>
  <rect width="906" height="524" fill="white"/>
<rect x="10" y="34" width="196" height="60" rx="10" fill="#fdf1f7" filter="url(#soft)"/>
<text x="108" y="68" text-anchor="middle" font-size="12" font-weight="600" fill="#2f3142">User</text>
<path d="M108,94 V504" stroke="#f5d9e8" stroke-width="2" stroke-dasharray="6 6"/>
<rect x="240" y="34" width="196" height="60" rx="10" fill="#fdf1f7" filter="url(#soft)"/>
<text x="338" y="59.5" text-anchor="middle" font-size="12" font-weight="600" fill="#2f3142">ASP.NET Output</text>
<text x="338" y="76.5" text-anchor="middle" font-size="12" font-weight="600" fill="#2f3142">Cache</text>
<path d="M338,94 V504" stroke="#f5d9e8" stroke-width="2" stroke-dasharray="6 6"/>
<rect x="470" y="34" width="196" height="60" rx="10" fill="#fdf1f7" filter="url(#soft)"/>
<text x="568" y="59.5" text-anchor="middle" font-size="12" font-weight="600" fill="#2f3142">Umbraco</text>
<text x="568" y="76.5" text-anchor="middle" font-size="12" font-weight="600" fill="#2f3142">WebsiteOutputCachePolicy</text>
<path d="M568,94 V504" stroke="#f5d9e8" stroke-width="2" stroke-dasharray="6 6"/>
<rect x="700" y="34" width="196" height="60" rx="10" fill="#fdf1f7" filter="url(#soft)"/>
<text x="798" y="68" text-anchor="middle" font-size="12" font-weight="600" fill="#2f3142">Razor Pipeline</text>
<path d="M798,94 V504" stroke="#f5d9e8" stroke-width="2" stroke-dasharray="6 6"/>
<path d="M108,130 H338" stroke="#cf95b6" stroke-width="2" fill="none" marker-end="url(#arrow)"/>
<text x="223" y="120" text-anchor="middle" font-size="11" font-weight="400" fill="#2f3142">Request /news</text>
<path d="M338,179 H568" stroke="#cf95b6" stroke-width="2" fill="none" marker-end="url(#arrow)"/>
<text x="453" y="155" text-anchor="middle" font-size="11" font-weight="400" fill="#2f3142">Ask if request is</text>
<text x="453" y="169" text-anchor="middle" font-size="11" font-weight="400" fill="#2f3142">cacheable</text>
<rect x="86" y="192" width="734" height="34" rx="8" fill="white" stroke="#f5d9e8"/>
<text x="100" y="213" font-size="11" font-weight="700" fill="#e35aa0">ALT</text>
<text x="453" y="213" text-anchor="middle" font-size="11" font-weight="400" fill="#6b708c">Cache hit</text>
<path d="M338,257 H108" stroke="#cf95b6" stroke-width="2" stroke-dasharray="5 5" fill="none" marker-end="url(#arrow)"/>
<text x="223" y="247" text-anchor="middle" font-size="11" font-weight="400" fill="#2f3142">Return cached HTML</text>
<rect x="86" y="270" width="734" height="34" rx="8" fill="white" stroke="#f5d9e8"/>
<text x="100" y="291" font-size="11" font-weight="700" fill="#e35aa0">ELSE</text>
<text x="453" y="291" text-anchor="middle" font-size="11" font-weight="400" fill="#6b708c">Cache miss</text>
<path d="M568,335 H798" stroke="#cf95b6" stroke-width="2" fill="none" marker-end="url(#arrow)"/>
<text x="683" y="325" text-anchor="middle" font-size="11" font-weight="400" fill="#2f3142">Allow normal rendering</text>
<path d="M798,369 H338" stroke="#cf95b6" stroke-width="2" stroke-dasharray="5 5" fill="none" marker-end="url(#arrow)"/>
<text x="568" y="359" text-anchor="middle" font-size="11" font-weight="400" fill="#2f3142">Rendered HTML response</text>
<path d="M338,403 H108" stroke="#cf95b6" stroke-width="2" stroke-dasharray="5 5" fill="none" marker-end="url(#arrow)"/>
<text x="223" y="393" text-anchor="middle" font-size="11" font-weight="400" fill="#2f3142">Return HTML</text>
<path d="M338,466 h34 v16 h-34" stroke="#cf95b6" stroke-width="2" fill="none" marker-end="url(#arrow)"/>
<text x="382" y="463" text-anchor="start" font-size="11" font-weight="400" fill="#2f3142">Store HTML if policy</text>
<text x="382" y="477" text-anchor="start" font-size="11" font-weight="400" fill="#2f3142">allows</text>
</svg>
