<svg viewBox="0 0 756 502" xmlns="http://www.w3.org/2000/svg" font-family="-apple-system, BlinkMacSystemFont, 'Segoe UI', Roboto, sans-serif">
  <defs>
    <linearGradient id="lineGrad" x1="0" y1="0" x2="0" y2="1">
      <stop offset="0%" stop-color="#e35aa0"/>
      <stop offset="100%" stop-color="#b83a86"/>
    </linearGradient>
    <filter id="soft" x="-20%" y="-20%" width="140%" height="140%">
      <feDropShadow dx="0" dy="2" stdDeviation="4" flood-color="#e35aa0" flood-opacity="0.14"/>
    </filter>
    <marker id="arrow" viewBox="0 0 10 10" refX="8" refY="5" markerWidth="7" markerHeight="7" orient="auto-start-reverse">
      <path d="M0,0 L10,5 L0,10 z" fill="#cf95b6"/>
    </marker>
  </defs>
  <rect width="756" height="502" fill="white"/>
<rect x="10" y="34" width="120" height="60" rx="10" fill="#fdf1f7" filter="url(#soft)"/>
<text x="70" y="68" text-anchor="middle" font-size="12" font-weight="600" fill="#2f3142">Caller A</text>
<path d="M70,94 V482" stroke="#f5d9e8" stroke-width="2" stroke-dasharray="6 6"/>
<rect x="164" y="34" width="120" height="60" rx="10" fill="#fdf1f7" filter="url(#soft)"/>
<text x="224" y="68" text-anchor="middle" font-size="12" font-weight="600" fill="#2f3142">Caller B</text>
<path d="M224,94 V482" stroke="#f5d9e8" stroke-width="2" stroke-dasharray="6 6"/>
<rect x="318" y="34" width="120" height="60" rx="10" fill="#fdf1f7" filter="url(#soft)"/>
<text x="378" y="68" text-anchor="middle" font-size="12" font-weight="600" fill="#2f3142">Caller C</text>
<path d="M378,94 V482" stroke="#f5d9e8" stroke-width="2" stroke-dasharray="6 6"/>
<rect x="472" y="34" width="120" height="60" rx="10" fill="#fdf1f7" filter="url(#soft)"/>
<text x="532" y="68" text-anchor="middle" font-size="12" font-weight="600" fill="#2f3142">HybridCache</text>
<path d="M532,94 V482" stroke="#f5d9e8" stroke-width="2" stroke-dasharray="6 6"/>
<rect x="626" y="34" width="120" height="60" rx="10" fill="#fdf1f7" filter="url(#soft)"/>
<text x="686" y="59.5" text-anchor="middle" font-size="12" font-weight="600" fill="#2f3142">Factory</text>
<text x="686" y="76.5" text-anchor="middle" font-size="12" font-weight="600" fill="#2f3142">(expensive)</text>
<path d="M686,94 V482" stroke="#f5d9e8" stroke-width="2" stroke-dasharray="6 6"/>
<path d="M70,130 H532" stroke="#cf95b6" stroke-width="2" fill="none" marker-end="url(#arrow)"/>
<text x="301" y="120" text-anchor="middle" font-size="11" font-weight="400" fill="#2f3142">GetOrCreateAsync(&quot;k&quot;)</text>
<path d="M224,164 H532" stroke="#cf95b6" stroke-width="2" fill="none" marker-end="url(#arrow)"/>
<text x="378" y="154" text-anchor="middle" font-size="11" font-weight="400" fill="#2f3142">GetOrCreateAsync(&quot;k&quot;)</text>
<path d="M378,198 H532" stroke="#cf95b6" stroke-width="2" fill="none" marker-end="url(#arrow)"/>
<text x="455" y="188" text-anchor="middle" font-size="11" font-weight="400" fill="#2f3142">GetOrCreateAsync(&quot;k&quot;)</text>
<rect x="428" y="228" width="208" height="40" rx="9" fill="#fff7e8" stroke="#e2b568"/>
<text x="532" y="252" text-anchor="middle" font-size="11" font-weight="400" fill="#2f3142">One miss, three callers</text>
<path d="M532,328 H686" stroke="#cf95b6" stroke-width="2" fill="none" marker-end="url(#arrow)"/>
<text x="609" y="290" text-anchor="middle" font-size="11" font-weight="400" fill="#2f3142">Invoke factory ONCE</text>
<text x="609" y="304" text-anchor="middle" font-size="11" font-weight="400" fill="#2f3142">(combined</text>
<text x="609" y="318" text-anchor="middle" font-size="11" font-weight="400" fill="#2f3142">cancellation)</text>
<path d="M686,362 H532" stroke="#cf95b6" stroke-width="2" stroke-dasharray="5 5" fill="none" marker-end="url(#arrow)"/>
<text x="609" y="352" text-anchor="middle" font-size="11" font-weight="400" fill="#2f3142">Value</text>
<path d="M532,396 H70" stroke="#cf95b6" stroke-width="2" stroke-dasharray="5 5" fill="none" marker-end="url(#arrow)"/>
<text x="301" y="386" text-anchor="middle" font-size="11" font-weight="400" fill="#2f3142">Value</text>
<path d="M532,430 H224" stroke="#cf95b6" stroke-width="2" stroke-dasharray="5 5" fill="none" marker-end="url(#arrow)"/>
<text x="378" y="420" text-anchor="middle" font-size="11" font-weight="400" fill="#2f3142">Value</text>
<path d="M532,464 H378" stroke="#cf95b6" stroke-width="2" stroke-dasharray="5 5" fill="none" marker-end="url(#arrow)"/>
<text x="455" y="454" text-anchor="middle" font-size="11" font-weight="400" fill="#2f3142">Value</text>
</svg>
