<svg viewBox="0 0 760 430" xmlns="http://www.w3.org/2000/svg" font-family="-apple-system, BlinkMacSystemFont, 'Segoe UI', Roboto, sans-serif">
  <defs>
    <linearGradient id="lineGrad" x1="0" y1="0" x2="0" y2="1">
      <stop offset="0%" stop-color="#e35aa0"/>
      <stop offset="100%" stop-color="#b83a86"/>
    </linearGradient>
    <filter id="soft" x="-20%" y="-20%" width="140%" height="140%">
      <feDropShadow dx="0" dy="2" stdDeviation="4" flood-color="#e35aa0" flood-opacity="0.14"/>
    </filter>
    <marker id="arrow" viewBox="0 0 10 10" refX="8" refY="5" markerWidth="7" markerHeight="7" orient="auto-start-reverse">
      <path d="M0,0 L10,5 L0,10 z" fill="#cf95b6"/>
    </marker>
  </defs>
  <rect width="760" height="430" fill="white"/>
<text x="380" y="42" text-anchor="middle" font-size="18" font-weight="700" fill="#2f3142">Conceptual Payload Pressure</text>
<path d="M78,86 V336 H698" stroke="#cf95b6" stroke-width="2" fill="none"/>
<path d="M78,336 H698" stroke="#f5d9e8" stroke-width="1"/>
<path d="M78,273.5 H698" stroke="#f5d9e8" stroke-width="1"/>
<path d="M78,211 H698" stroke="#f5d9e8" stroke-width="1"/>
<path d="M78,148.5 H698" stroke="#f5d9e8" stroke-width="1"/>
<path d="M78,86 H698" stroke="#f5d9e8" stroke-width="1"/>
<rect x="110.55000000000001" y="311" width="89.89999999999999" height="25" rx="8" fill="url(#lineGrad)" filter="url(#soft)"/>
<text x="155.5" y="299" text-anchor="middle" font-size="12" font-weight="700" fill="#e35aa0">10</text>
<text x="155.5" y="371" text-anchor="middle" font-size="11" font-weight="400" fill="#6b708c">Small site</text>
<rect x="265.55" y="248.5" width="89.89999999999999" height="87.5" rx="8" fill="url(#lineGrad)" filter="url(#soft)"/>
<text x="310.5" y="236.5" text-anchor="middle" font-size="12" font-weight="700" fill="#e35aa0">35</text>
<text x="310.5" y="371" text-anchor="middle" font-size="11" font-weight="400" fill="#6b708c">Multilingual site</text>
<rect x="420.55" y="186" width="89.89999999999999" height="150" rx="8" fill="url(#lineGrad)" filter="url(#soft)"/>
<text x="465.5" y="174" text-anchor="middle" font-size="12" font-weight="700" fill="#e35aa0">60</text>
<text x="465.5" y="371" text-anchor="middle" font-size="11" font-weight="400" fill="#6b708c">Block-heavy site</text>
<rect x="575.55" y="98.5" width="89.89999999999999" height="237.5" rx="8" fill="url(#lineGrad)" filter="url(#soft)"/>
<text x="620.5" y="86.5" text-anchor="middle" font-size="12" font-weight="700" fill="#e35aa0">95</text>
<text x="620.5" y="371" text-anchor="middle" font-size="11" font-weight="400" fill="#6b708c">Large multilingual blocks</text>
</svg>
