<svg viewBox="0 0 1498 738" xmlns="http://www.w3.org/2000/svg" font-family="-apple-system, BlinkMacSystemFont, 'Segoe UI', Roboto, sans-serif">
  <defs>
    <linearGradient id="lineGrad" x1="0" y1="0" x2="0" y2="1">
      <stop offset="0%" stop-color="#667eea"/>
      <stop offset="100%" stop-color="#764ba2"/>
    </linearGradient>
    <filter id="soft" x="-20%" y="-20%" width="140%" height="140%">
      <feDropShadow dx="0" dy="2" stdDeviation="4" flood-color="#667eea" flood-opacity="0.14"/>
    </filter>
    <marker id="arrow" viewBox="0 0 10 10" refX="8" refY="5" markerWidth="7" markerHeight="7" orient="auto-start-reverse">
      <path d="M0,0 L10,5 L0,10 z" fill="#9aa0c4"/>
    </marker>
  </defs>
  <rect width="1498" height="738" fill="white"/>
<path d="M358,75 C476,75 476,193 594,193" stroke="#9aa0c4" stroke-width="2" fill="none" marker-end="url(#arrow)"/>

<path d="M749,220 C749,252 749,252 749,284" stroke="#9aa0c4" stroke-width="2" fill="none" marker-end="url(#arrow)"/>

<path d="M749,338 C749,370 749,370 749,402" stroke="#9aa0c4" stroke-width="2" fill="none" marker-end="url(#arrow)"/>

<rect x="48" y="48" width="310" height="54" rx="10" fill="#f3f4fb" stroke="none" stroke-width="0" filter="url(#soft)"/>
<rect x="48" y="48" width="6" height="54" rx="3" fill="url(#lineGrad)"/>
<text x="203" y="79" text-anchor="middle" font-size="13" font-weight="400" fill="#2f3142">Server starts</text>
<rect x="594" y="166" width="310" height="54" rx="10" fill="#f3f4fb" stroke="none" stroke-width="0" filter="url(#soft)"/>
<rect x="594" y="166" width="6" height="54" rx="3" fill="url(#lineGrad)"/>
<text x="749" y="197" text-anchor="middle" font-size="13" font-weight="400" fill="#2f3142">Run seed providers</text>
<rect x="594" y="284" width="310" height="54" rx="10" fill="#f3f4fb" stroke="none" stroke-width="0" filter="url(#soft)"/>
<rect x="594" y="284" width="6" height="54" rx="3" fill="url(#lineGrad)"/>
<text x="749" y="315" text-anchor="middle" font-size="13" font-weight="400" fill="#2f3142">Cache seed keys</text>
<rect x="594" y="402" width="310" height="54" rx="10" fill="#f3f4fb" stroke="none" stroke-width="0" filter="url(#soft)"/>
<rect x="594" y="402" width="6" height="54" rx="3" fill="url(#lineGrad)"/>
<text x="749" y="433" text-anchor="middle" font-size="13" font-weight="400" fill="#2f3142">Warm initial entries</text>
<rect x="412" y="48" width="310" height="54" rx="10" fill="#f3f4fb" stroke="none" stroke-width="0" filter="url(#soft)"/>
<rect x="412" y="48" width="6" height="54" rx="3" fill="url(#lineGrad)"/>
<text x="567" y="79" text-anchor="middle" font-size="13" font-weight="400" fill="#2f3142">New content created later</text>
<rect x="776" y="48" width="310" height="54" rx="10" fill="#f3f4fb" stroke="none" stroke-width="0" filter="url(#soft)"/>
<rect x="776" y="48" width="6" height="54" rx="3" fill="url(#lineGrad)"/>
<text x="931" y="79" text-anchor="middle" font-size="13" font-weight="400" fill="#2f3142">Not in cached seed set yet</text>
<rect x="1140" y="48" width="310" height="64" rx="10" fill="#f3f4fb" stroke="none" stroke-width="0" filter="url(#soft)"/>
<rect x="1140" y="48" width="6" height="64" rx="3" fill="url(#lineGrad)"/>
<text x="1295" y="75.5" text-anchor="middle" font-size="13" font-weight="400" fill="#2f3142">Will only join seed set after</text>
<text x="1295" y="92.5" text-anchor="middle" font-size="13" font-weight="400" fill="#2f3142">restart</text>
</svg>
