<svg viewBox="0 0 1170 380" xmlns="http://www.w3.org/2000/svg" font-family="-apple-system, BlinkMacSystemFont, 'Segoe UI', Roboto, sans-serif">
  <defs>
    <linearGradient id="lineGrad" x1="0" y1="0" x2="0" y2="1">
      <stop offset="0%" stop-color="#e35aa0"/>
      <stop offset="100%" stop-color="#b83a86"/>
    </linearGradient>
    <filter id="soft" x="-20%" y="-20%" width="140%" height="140%">
      <feDropShadow dx="0" dy="2" stdDeviation="4" flood-color="#e35aa0" flood-opacity="0.14"/>
    </filter>
    <marker id="arrow" viewBox="0 0 10 10" refX="8" refY="5" markerWidth="7" markerHeight="7" orient="auto-start-reverse">
      <path d="M0,0 L10,5 L0,10 z" fill="#cf95b6"/>
    </marker>
  </defs>
  <rect width="1170" height="380" fill="white"/>
<path d="M258,190 C297,190 297,146 336,146" stroke="#cf95b6" stroke-width="2" fill="none" marker-end="url(#arrow)"/>

<path d="M258,190 C297,190 297,234 336,234" stroke="#cf95b6" stroke-width="2" fill="none" marker-end="url(#arrow)"/>

<path d="M546,146 C585,146 585,141 624,141" stroke="#cf95b6" stroke-width="2" fill="none" marker-end="url(#arrow)"/>

<path d="M546,234 C585,234 585,244 624,244" stroke="#cf95b6" stroke-width="2" fill="none" marker-end="url(#arrow)"/>

<path d="M834,244 C834,173 912,173 912,102" stroke="#cf95b6" stroke-width="2" fill="none" marker-end="url(#arrow)"/>

<path d="M834,244 C873,244 873,190 912,190" stroke="#cf95b6" stroke-width="2" fill="none" marker-end="url(#arrow)"/>

<path d="M834,244 C873,244 873,278 912,278" stroke="#cf95b6" stroke-width="2" fill="none" marker-end="url(#arrow)"/>

<rect x="48" y="163" width="210" height="54" rx="10" fill="#fdf1f7" stroke="none" stroke-width="0" filter="url(#soft)"/>
<rect x="48" y="163" width="6" height="54" rx="3" fill="url(#lineGrad)"/>
<text x="153" y="194" text-anchor="middle" font-size="13" font-weight="400" fill="#2f3142">Published request</text>
<rect x="336" y="119" width="210" height="54" rx="10" fill="#fdf1f7" stroke="none" stroke-width="0" filter="url(#soft)"/>
<rect x="336" y="119" width="6" height="54" rx="3" fill="url(#lineGrad)"/>
<text x="441" y="150" text-anchor="middle" font-size="13" font-weight="400" fill="#2f3142">Routing and navigation</text>
<rect x="336" y="207" width="210" height="54" rx="10" fill="#fdf1f7" stroke="none" stroke-width="0" filter="url(#soft)"/>
<rect x="336" y="207" width="6" height="54" rx="3" fill="url(#lineGrad)"/>
<text x="441" y="238" text-anchor="middle" font-size="13" font-weight="400" fill="#2f3142">Published content payloads</text>
<rect x="624" y="114" width="210" height="54" rx="10" fill="#fdf1f7" stroke="none" stroke-width="0" filter="url(#soft)"/>
<rect x="624" y="114" width="6" height="54" rx="3" fill="url(#lineGrad)"/>
<text x="729" y="145" text-anchor="middle" font-size="13" font-weight="400" fill="#2f3142">Usually kept hot in memory</text>
<rect x="624" y="212" width="210" height="64" rx="10" fill="#fdf1f7" stroke="none" stroke-width="0" filter="url(#soft)"/>
<rect x="624" y="212" width="6" height="64" rx="3" fill="url(#lineGrad)"/>
<text x="729" y="239.5" text-anchor="middle" font-size="13" font-weight="400" fill="#2f3142">Hot or cold depending on</text>
<text x="729" y="256.5" text-anchor="middle" font-size="13" font-weight="400" fill="#2f3142">demand</text>
<rect x="912" y="75" width="210" height="54" rx="10" fill="#fdf1f7" stroke="none" stroke-width="0" filter="url(#soft)"/>
<rect x="912" y="75" width="6" height="54" rx="3" fill="url(#lineGrad)"/>
<text x="1017" y="106" text-anchor="middle" font-size="13" font-weight="400" fill="#2f3142">L1 memory</text>
<rect x="912" y="163" width="210" height="54" rx="10" fill="#fdf1f7" stroke="none" stroke-width="0" filter="url(#soft)"/>
<rect x="912" y="163" width="6" height="54" rx="3" fill="url(#lineGrad)"/>
<text x="1017" y="194" text-anchor="middle" font-size="13" font-weight="400" fill="#2f3142">L2 distributed cache</text>
<rect x="912" y="251" width="210" height="54" rx="10" fill="#fdf1f7" stroke="none" stroke-width="0" filter="url(#soft)"/>
<rect x="912" y="251" width="6" height="54" rx="3" fill="url(#lineGrad)"/>
<text x="1017" y="282" text-anchor="middle" font-size="13" font-weight="400" fill="#2f3142">Database-backed cache source</text>
</svg>
