<svg viewBox="0 0 888 624" xmlns="http://www.w3.org/2000/svg" font-family="-apple-system, BlinkMacSystemFont, 'Segoe UI', Roboto, sans-serif">
  <defs>
    <linearGradient id="lineGrad" x1="0" y1="0" x2="0" y2="1">
      <stop offset="0%" stop-color="#667eea"/>
      <stop offset="100%" stop-color="#764ba2"/>
    </linearGradient>
    <filter id="soft" x="-20%" y="-20%" width="140%" height="140%">
      <feDropShadow dx="0" dy="2" stdDeviation="4" flood-color="#667eea" flood-opacity="0.14"/>
    </filter>
    <marker id="arrow" viewBox="0 0 10 10" refX="8" refY="5" markerWidth="7" markerHeight="7" orient="auto-start-reverse">
      <path d="M0,0 L10,5 L0,10 z" fill="#9aa0c4"/>
    </marker>
  </defs>
  <rect width="888" height="624" fill="white"/>
<rect x="-4" y="34" width="104" height="44" rx="10" fill="#f3f4fb" filter="url(#soft)"/>
<text x="48" y="61" text-anchor="middle" font-size="12" font-weight="600" fill="#2f3142">Editor</text>
<path d="M48,78 V590" stroke="#dde1f2" stroke-width="2" stroke-dasharray="6 6"/>
<rect x="128" y="34" width="104" height="44" rx="10" fill="#f3f4fb" filter="url(#soft)"/>
<text x="180" y="61" text-anchor="middle" font-size="12" font-weight="600" fill="#2f3142">Backoffice</text>
<path d="M180,78 V590" stroke="#dde1f2" stroke-width="2" stroke-dasharray="6 6"/>
<rect x="260" y="34" width="104" height="44" rx="10" fill="#f3f4fb" filter="url(#soft)"/>
<text x="312" y="61" text-anchor="middle" font-size="12" font-weight="600" fill="#2f3142">DistributedCache</text>
<path d="M312,78 V590" stroke="#dde1f2" stroke-width="2" stroke-dasharray="6 6"/>
<rect x="392" y="34" width="104" height="44" rx="10" fill="#f3f4fb" filter="url(#soft)"/>
<text x="444" y="61" text-anchor="middle" font-size="12" font-weight="600" fill="#2f3142">Server A</text>
<path d="M444,78 V590" stroke="#dde1f2" stroke-width="2" stroke-dasharray="6 6"/>
<rect x="524" y="34" width="104" height="44" rx="10" fill="#f3f4fb" filter="url(#soft)"/>
<text x="576" y="61" text-anchor="middle" font-size="12" font-weight="600" fill="#2f3142">Server B</text>
<path d="M576,78 V590" stroke="#dde1f2" stroke-width="2" stroke-dasharray="6 6"/>
<rect x="656" y="34" width="104" height="44" rx="10" fill="#f3f4fb" filter="url(#soft)"/>
<text x="708" y="61" text-anchor="middle" font-size="12" font-weight="600" fill="#2f3142">Published content cache</text>
<path d="M708,78 V590" stroke="#dde1f2" stroke-width="2" stroke-dasharray="6 6"/>
<rect x="788" y="34" width="104" height="44" rx="10" fill="#f3f4fb" filter="url(#soft)"/>
<text x="840" y="61" text-anchor="middle" font-size="12" font-weight="600" fill="#2f3142">Output cache</text>
<path d="M840,78 V590" stroke="#dde1f2" stroke-width="2" stroke-dasharray="6 6"/>
<path d="M48,118 H180" stroke="#9aa0c4" stroke-width="2" fill="none" marker-end="url(#arrow)"/>
<text x="114" y="107" text-anchor="middle" font-size="11" font-weight="400" fill="#2f3142">Publish article 1111...</text>
<path d="M180,172 H312" stroke="#9aa0c4" stroke-width="2" fill="none" marker-end="url(#arrow)"/>
<text x="246" y="152.5" text-anchor="middle" font-size="11" font-weight="400" fill="#2f3142">ContentCacheRefresher</text>
<text x="246" y="169.5" text-anchor="middle" font-size="11" font-weight="400" fill="#2f3142">RefreshNode</text>
<path d="M312,226 H444" stroke="#9aa0c4" stroke-width="2" fill="none" marker-end="url(#arrow)"/>
<text x="378" y="215" text-anchor="middle" font-size="11" font-weight="400" fill="#2f3142">Run refresher locally</text>
<path d="M312,280 H576" stroke="#9aa0c4" stroke-width="2" fill="none" marker-end="url(#arrow)"/>
<text x="444" y="269" text-anchor="middle" font-size="11" font-weight="400" fill="#2f3142">Broadcast same refresh</text>
<path d="M444,334 H708" stroke="#9aa0c4" stroke-width="2" fill="none" marker-end="url(#arrow)"/>
<text x="576" y="314.5" text-anchor="middle" font-size="11" font-weight="400" fill="#2f3142">Refresh or remove article</text>
<text x="576" y="331.5" text-anchor="middle" font-size="11" font-weight="400" fill="#2f3142">entry</text>
<path d="M576,388 H708" stroke="#9aa0c4" stroke-width="2" fill="none" marker-end="url(#arrow)"/>
<text x="642" y="368.5" text-anchor="middle" font-size="11" font-weight="400" fill="#2f3142">Refresh or remove article</text>
<text x="642" y="385.5" text-anchor="middle" font-size="11" font-weight="400" fill="#2f3142">entry</text>
<path d="M444,442 H840" stroke="#9aa0c4" stroke-width="2" fill="none" marker-end="url(#arrow)"/>
<text x="642" y="422.5" text-anchor="middle" font-size="11" font-weight="400" fill="#2f3142">Evict HTML tagged with article</text>
<text x="642" y="439.5" text-anchor="middle" font-size="11" font-weight="400" fill="#2f3142">key</text>
<path d="M576,496 H840" stroke="#9aa0c4" stroke-width="2" fill="none" marker-end="url(#arrow)"/>
<text x="708" y="476.5" text-anchor="middle" font-size="11" font-weight="400" fill="#2f3142">Evict HTML tagged with article</text>
<text x="708" y="493.5" text-anchor="middle" font-size="11" font-weight="400" fill="#2f3142">key</text>
<path d="M840,550 H840" stroke="#9aa0c4" stroke-width="2" fill="none" marker-end="url(#arrow)"/>
<text x="840" y="530.5" text-anchor="middle" font-size="11" font-weight="400" fill="#2f3142">Evict related pages, such as</text>
<text x="840" y="547.5" text-anchor="middle" font-size="11" font-weight="400" fill="#2f3142">homepage 3333...</text>
</svg>
