<svg viewBox="0 0 760 430" xmlns="http://www.w3.org/2000/svg" font-family="-apple-system, BlinkMacSystemFont, 'Segoe UI', Roboto, sans-serif">
  <defs>
    <linearGradient id="lineGrad" x1="0" y1="0" x2="0" y2="1">
      <stop offset="0%" stop-color="#e35aa0"/>
      <stop offset="100%" stop-color="#b83a86"/>
    </linearGradient>
    <filter id="soft" x="-20%" y="-20%" width="140%" height="140%">
      <feDropShadow dx="0" dy="2" stdDeviation="4" flood-color="#e35aa0" flood-opacity="0.14"/>
    </filter>
    <marker id="arrow" viewBox="0 0 10 10" refX="8" refY="5" markerWidth="7" markerHeight="7" orient="auto-start-reverse">
      <path d="M0,0 L10,5 L0,10 z" fill="#cf95b6"/>
    </marker>
  </defs>
  <rect width="760" height="430" fill="white"/>
<text x="380" y="42" text-anchor="middle" font-size="18" font-weight="700" fill="#2f3142">Issue concentration by theme (survey snapshot)</text>
<path d="M78,86 V336 H698" stroke="#cf95b6" stroke-width="2" fill="none"/>
<path d="M78,336 H698" stroke="#f5d9e8" stroke-width="1"/>
<path d="M78,273.5 H698" stroke="#f5d9e8" stroke-width="1"/>
<path d="M78,211 H698" stroke="#f5d9e8" stroke-width="1"/>
<path d="M78,148.5 H698" stroke="#f5d9e8" stroke-width="1"/>
<path d="M78,86 H698" stroke="#f5d9e8" stroke-width="1"/>
<rect x="104.03999999999999" y="86" width="71.92" height="250" rx="8" fill="url(#lineGrad)" filter="url(#soft)"/>
<text x="140" y="74" text-anchor="middle" font-size="12" font-weight="700" fill="#e35aa0">5</text>
<text x="140" y="371" text-anchor="middle" font-size="11" font-weight="400" fill="#6b708c">URL/routing</text>
<rect x="228.04" y="186" width="71.92" height="150" rx="8" fill="url(#lineGrad)" filter="url(#soft)"/>
<text x="264" y="174" text-anchor="middle" font-size="12" font-weight="700" fill="#e35aa0">3</text>
<text x="264" y="371" text-anchor="middle" font-size="11" font-weight="400" fill="#6b708c">Cold start/migration</text>
<rect x="352.04" y="136" width="71.92" height="200" rx="8" fill="url(#lineGrad)" filter="url(#soft)"/>
<text x="388" y="124" text-anchor="middle" font-size="12" font-weight="700" fill="#e35aa0">4</text>
<text x="388" y="371" text-anchor="middle" font-size="11" font-weight="400" fill="#6b708c">Distributed invalidation</text>
<rect x="476.04" y="136" width="71.92" height="200" rx="8" fill="url(#lineGrad)" filter="url(#soft)"/>
<text x="512" y="124" text-anchor="middle" font-size="12" font-weight="700" fill="#e35aa0">4</text>
<text x="512" y="371" text-anchor="middle" font-size="11" font-weight="400" fill="#6b708c">HybridCache internals</text>
<rect x="600.04" y="236" width="71.92" height="100" rx="8" fill="url(#lineGrad)" filter="url(#soft)"/>
<text x="636" y="224" text-anchor="middle" font-size="12" font-weight="700" fill="#e35aa0">2</text>
<text x="636" y="371" text-anchor="middle" font-size="11" font-weight="400" fill="#6b708c">Historical NuCache</text>
</svg>
