<svg viewBox="0 0 720 738" xmlns="http://www.w3.org/2000/svg" font-family="-apple-system, BlinkMacSystemFont, 'Segoe UI', Roboto, sans-serif">
  <defs>
    <linearGradient id="lineGrad" x1="0" y1="0" x2="0" y2="1">
      <stop offset="0%" stop-color="#e35aa0"/>
      <stop offset="100%" stop-color="#b83a86"/>
    </linearGradient>
    <filter id="soft" x="-20%" y="-20%" width="140%" height="140%">
      <feDropShadow dx="0" dy="2" stdDeviation="4" flood-color="#e35aa0" flood-opacity="0.14"/>
    </filter>
    <marker id="arrow" viewBox="0 0 10 10" refX="8" refY="5" markerWidth="7" markerHeight="7" orient="auto-start-reverse">
      <path d="M0,0 L10,5 L0,10 z" fill="#cf95b6"/>
    </marker>
  </defs>
  <rect width="720" height="738" fill="white"/>
<path d="M360,112 C360,139 360,139 360,166" stroke="#cf95b6" stroke-width="2" fill="none" marker-end="url(#arrow)"/>

<path d="M360,220 C360,252 360,252 360,284" stroke="#cf95b6" stroke-width="2" fill="none" marker-end="url(#arrow)"/>

<path d="M360,338 C360,370 360,370 360,402" stroke="#cf95b6" stroke-width="2" fill="none" marker-end="url(#arrow)"/>

<rect x="205" y="48" width="310" height="64" rx="10" fill="#fdf1f7" stroke="none" stroke-width="0" filter="url(#soft)"/>
<rect x="205" y="48" width="6" height="64" rx="3" fill="url(#lineGrad)"/>
<text x="360" y="75.5" text-anchor="middle" font-size="13" font-weight="400" fill="#2f3142">ContentPublishingNotification</text>
<text x="360" y="92.5" text-anchor="middle" font-size="13" font-weight="400" fill="#2f3142">fired</text>
<rect x="205" y="166" width="310" height="54" rx="10" fill="#fdf1f7" stroke="none" stroke-width="0" filter="url(#soft)"/>
<rect x="205" y="166" width="6" height="54" rx="3" fill="url(#lineGrad)"/>
<text x="360" y="197" text-anchor="middle" font-size="13" font-weight="400" fill="#2f3142">ContentTreeChangeDistributedCacheNotificationHandler</text>
<rect x="205" y="284" width="310" height="54" rx="10" fill="#fdf1f7" stroke="none" stroke-width="0" filter="url(#soft)"/>
<rect x="205" y="284" width="6" height="54" rx="3" fill="url(#lineGrad)"/>
<text x="360" y="315" text-anchor="middle" font-size="13" font-weight="400" fill="#2f3142">DistributedCache.RefreshContentCache()</text>
<rect x="205" y="402" width="310" height="64" rx="10" fill="#fdf1f7" stroke="none" stroke-width="0" filter="url(#soft)"/>
<rect x="205" y="402" width="6" height="64" rx="3" fill="url(#lineGrad)"/>
<text x="360" y="429.5" text-anchor="middle" font-size="13" font-weight="400" fill="#2f3142">ContentCacheRefresher.Refresh()</text>
<text x="360" y="446.5" text-anchor="middle" font-size="13" font-weight="400" fill="#2f3142">runs on each server</text>
</svg>
