<svg viewBox="0 0 782 454" xmlns="http://www.w3.org/2000/svg" font-family="-apple-system, BlinkMacSystemFont, 'Segoe UI', Roboto, sans-serif">
  <defs>
    <linearGradient id="lineGrad" x1="0" y1="0" x2="0" y2="1">
      <stop offset="0%" stop-color="#e35aa0"/>
      <stop offset="100%" stop-color="#b83a86"/>
    </linearGradient>
    <filter id="soft" x="-20%" y="-20%" width="140%" height="140%">
      <feDropShadow dx="0" dy="2" stdDeviation="4" flood-color="#e35aa0" flood-opacity="0.14"/>
    </filter>
    <marker id="arrow" viewBox="0 0 10 10" refX="8" refY="5" markerWidth="7" markerHeight="7" orient="auto-start-reverse">
      <path d="M0,0 L10,5 L0,10 z" fill="#cf95b6"/>
    </marker>
  </defs>
  <rect width="782" height="454" fill="white"/>
<rect x="44" y="44" width="330" height="366" rx="12" fill="#fdeff6" stroke="#f5d9e8" stroke-width="1.5"/>
<text x="58" y="66" text-anchor="start" font-size="12" font-weight="700" fill="#e35aa0">Normal CMS publish</text>
<rect x="408" y="44" width="330" height="366" rx="12" fill="#fdeff6" stroke="#f5d9e8" stroke-width="1.5"/>
<text x="422" y="66" text-anchor="start" font-size="12" font-weight="700" fill="#e35aa0">Deploy operation</text>
<path d="M209,148 C209,157 209,157 209,166" stroke="#cf95b6" stroke-width="2" fill="none" marker-end="url(#arrow)"/>

<path d="M573,148 C573,157 573,157 573,166" stroke="#cf95b6" stroke-width="2" fill="none" marker-end="url(#arrow)"/>

<path d="M573,230 C573,239 573,239 573,248" stroke="#cf95b6" stroke-width="2" fill="none" marker-end="url(#arrow)"/>

<path d="M573,302 C573,311 573,311 573,320" stroke="#cf95b6" stroke-width="2" fill="none" marker-end="url(#arrow)"/>

<rect x="63" y="94" width="292" height="54" rx="10" fill="#fdf1f7" stroke="none" stroke-width="0" filter="url(#soft)"/>
<rect x="63" y="94" width="6" height="54" rx="3" fill="url(#lineGrad)"/>
<text x="209" y="125" text-anchor="middle" font-size="13" font-weight="400" fill="#2f3142">One item saved</text>
<rect x="63" y="166" width="292" height="54" rx="10" fill="#fdf1f7" stroke="none" stroke-width="0" filter="url(#soft)"/>
<rect x="63" y="166" width="6" height="54" rx="3" fill="url(#lineGrad)"/>
<text x="209" y="197" text-anchor="middle" font-size="13" font-weight="400" fill="#2f3142">Refresher fires immediately</text>
<rect x="427" y="94" width="292" height="54" rx="10" fill="#fdf1f7" stroke="none" stroke-width="0" filter="url(#soft)"/>
<rect x="427" y="94" width="6" height="54" rx="3" fill="url(#lineGrad)"/>
<text x="573" y="125" text-anchor="middle" font-size="13" font-weight="400" fill="#2f3142">Many items transferred</text>
<rect x="427" y="166" width="292" height="64" rx="10" fill="#fdf1f7" stroke="none" stroke-width="0" filter="url(#soft)"/>
<rect x="427" y="166" width="6" height="64" rx="3" fill="url(#lineGrad)"/>
<text x="573" y="193.5" text-anchor="middle" font-size="13" font-weight="400" fill="#2f3142">Per-item notifications</text>
<text x="573" y="210.5" text-anchor="middle" font-size="13" font-weight="400" fill="#2f3142">suppressed</text>
<rect x="427" y="248" width="292" height="54" rx="10" fill="#fdf1f7" stroke="none" stroke-width="0" filter="url(#soft)"/>
<rect x="427" y="248" width="6" height="54" rx="3" fill="url(#lineGrad)"/>
<text x="573" y="279" text-anchor="middle" font-size="13" font-weight="400" fill="#2f3142">Operation completes</text>
<rect x="427" y="320" width="292" height="64" rx="10" fill="#fdf1f7" stroke="none" stroke-width="0" filter="url(#soft)"/>
<rect x="427" y="320" width="6" height="64" rx="3" fill="url(#lineGrad)"/>
<text x="573" y="347.5" text-anchor="middle" font-size="13" font-weight="400" fill="#2f3142">Refresher fires once for all</text>
<text x="573" y="364.5" text-anchor="middle" font-size="13" font-weight="400" fill="#2f3142">changes</text>
</svg>
