<svg viewBox="0 0 882 592" xmlns="http://www.w3.org/2000/svg" font-family="-apple-system, BlinkMacSystemFont, 'Segoe UI', Roboto, sans-serif">
  <defs>
    <linearGradient id="lineGrad" x1="0" y1="0" x2="0" y2="1">
      <stop offset="0%" stop-color="#e35aa0"/>
      <stop offset="100%" stop-color="#b83a86"/>
    </linearGradient>
    <filter id="soft" x="-20%" y="-20%" width="140%" height="140%">
      <feDropShadow dx="0" dy="2" stdDeviation="4" flood-color="#e35aa0" flood-opacity="0.14"/>
    </filter>
    <marker id="arrow" viewBox="0 0 10 10" refX="8" refY="5" markerWidth="7" markerHeight="7" orient="auto-start-reverse">
      <path d="M0,0 L10,5 L0,10 z" fill="#cf95b6"/>
    </marker>
  </defs>
  <rect width="882" height="592" fill="white"/>
<path d="M258,296 C297,296 297,296 336,296" stroke="#cf95b6" stroke-width="2" fill="none" marker-end="url(#arrow)"/>

<path d="M546,296 C546,203 624,203 624,110" stroke="#cf95b6" stroke-width="2" fill="none" marker-end="url(#arrow)"/>

<path d="M546,296 C546,252 624,252 624,208" stroke="#cf95b6" stroke-width="2" fill="none" marker-end="url(#arrow)"/>

<path d="M546,296 C585,296 585,281 624,281" stroke="#cf95b6" stroke-width="2" fill="none" marker-end="url(#arrow)"/>

<path d="M546,296 C585,296 585,369 624,369" stroke="#cf95b6" stroke-width="2" fill="none" marker-end="url(#arrow)"/>

<path d="M546,296 C546,399 624,399 624,502" stroke="#cf95b6" stroke-width="2" fill="none" marker-end="url(#arrow)"/>

<rect x="48" y="269" width="210" height="54" rx="10" fill="#fdf1f7" stroke="none" stroke-width="0" filter="url(#soft)"/>
<rect x="48" y="269" width="6" height="54" rx="3" fill="url(#lineGrad)"/>
<text x="153" y="300" text-anchor="middle" font-size="13" font-weight="400" fill="#2f3142">Move /products/shoes</text>
<rect x="336" y="269" width="210" height="54" rx="10" fill="#fdf1f7" stroke="none" stroke-width="0" filter="url(#soft)"/>
<rect x="336" y="269" width="6" height="54" rx="3" fill="url(#lineGrad)"/>
<text x="441" y="300" text-anchor="middle" font-size="13" font-weight="400" fill="#2f3142">RefreshBranch payload</text>
<rect x="624" y="78" width="210" height="64" rx="10" fill="#fdf1f7" stroke="none" stroke-width="0" filter="url(#soft)"/>
<rect x="624" y="78" width="6" height="64" rx="3" fill="url(#lineGrad)"/>
<text x="729" y="105.5" text-anchor="middle" font-size="13" font-weight="400" fill="#2f3142">Refresh or remove document</text>
<text x="729" y="122.5" text-anchor="middle" font-size="13" font-weight="400" fill="#2f3142">cache for branch</text>
<rect x="624" y="176" width="210" height="64" rx="10" fill="#fdf1f7" stroke="none" stroke-width="0" filter="url(#soft)"/>
<rect x="624" y="176" width="6" height="64" rx="3" fill="url(#lineGrad)"/>
<text x="729" y="203.5" text-anchor="middle" font-size="13" font-weight="400" fill="#2f3142">Update URL segment and alias</text>
<text x="729" y="220.5" text-anchor="middle" font-size="13" font-weight="400" fill="#2f3142">caches</text>
<rect x="624" y="254" width="210" height="54" rx="10" fill="#fdf1f7" stroke="none" stroke-width="0" filter="url(#soft)"/>
<rect x="624" y="254" width="6" height="54" rx="3" fill="url(#lineGrad)"/>
<text x="729" y="285" text-anchor="middle" font-size="13" font-weight="400" fill="#2f3142">Update navigation tree</text>
<rect x="624" y="342" width="210" height="54" rx="10" fill="#fdf1f7" stroke="none" stroke-width="0" filter="url(#soft)"/>
<rect x="624" y="342" width="6" height="54" rx="3" fill="url(#lineGrad)"/>
<text x="729" y="373" text-anchor="middle" font-size="13" font-weight="400" fill="#2f3142">Evict HTML by content key tag</text>
<rect x="624" y="470" width="210" height="64" rx="10" fill="#fdf1f7" stroke="none" stroke-width="0" filter="url(#soft)"/>
<rect x="624" y="470" width="6" height="64" rx="3" fill="url(#lineGrad)"/>
<text x="729" y="497.5" text-anchor="middle" font-size="13" font-weight="400" fill="#2f3142">Evict descendant HTML by</text>
<text x="729" y="514.5" text-anchor="middle" font-size="13" font-weight="400" fill="#2f3142">ancestor tag</text>
</svg>
