<svg viewBox="0 0 720 928" xmlns="http://www.w3.org/2000/svg" font-family="-apple-system, BlinkMacSystemFont, 'Segoe UI', Roboto, sans-serif">
  <defs>
    <linearGradient id="lineGrad" x1="0" y1="0" x2="0" y2="1">
      <stop offset="0%" stop-color="#667eea"/>
      <stop offset="100%" stop-color="#764ba2"/>
    </linearGradient>
    <filter id="soft" x="-20%" y="-20%" width="140%" height="140%">
      <feDropShadow dx="0" dy="2" stdDeviation="4" flood-color="#667eea" flood-opacity="0.14"/>
    </filter>
    <marker id="arrow" viewBox="0 0 10 10" refX="8" refY="5" markerWidth="7" markerHeight="7" orient="auto-start-reverse">
      <path d="M0,0 L10,5 L0,10 z" fill="#9aa0c4"/>
    </marker>
  </defs>
  <rect width="720" height="928" fill="white"/>
<path d="M360,112 C360,139 360,139 360,166" stroke="#9aa0c4" stroke-width="2" fill="none" marker-end="url(#arrow)"/>

<path d="M360,230 C360,257 360,257 360,284" stroke="#9aa0c4" stroke-width="2" fill="none" marker-end="url(#arrow)"/>

<path d="M360,348 C360,375 360,375 360,402" stroke="#9aa0c4" stroke-width="2" fill="none" marker-end="url(#arrow)"/>

<path d="M360,466 C360,493 360,493 360,520" stroke="#9aa0c4" stroke-width="2" fill="none" marker-end="url(#arrow)"/>

<rect x="205" y="48" width="310" height="64" rx="10" fill="#f3f4fb" stroke="none" stroke-width="0" filter="url(#soft)"/>
<rect x="205" y="48" width="6" height="64" rx="3" fill="url(#lineGrad)"/>
<text x="360" y="75.5" text-anchor="middle" font-size="13" font-weight="400" fill="#2f3142">Content saved, published,</text>
<text x="360" y="92.5" text-anchor="middle" font-size="13" font-weight="400" fill="#2f3142">moved, or deleted</text>
<rect x="205" y="166" width="310" height="64" rx="10" fill="#f3f4fb" stroke="none" stroke-width="0" filter="url(#soft)"/>
<rect x="205" y="166" width="6" height="64" rx="3" fill="url(#lineGrad)"/>
<text x="360" y="193.5" text-anchor="middle" font-size="13" font-weight="400" fill="#2f3142">Search custom cache refresher</text>
<text x="360" y="210.5" text-anchor="middle" font-size="13" font-weight="400" fill="#2f3142">payload</text>
<rect x="205" y="284" width="310" height="64" rx="10" fill="#f3f4fb" stroke="none" stroke-width="0" filter="url(#soft)"/>
<rect x="205" y="284" width="6" height="64" rx="3" fill="url(#lineGrad)"/>
<text x="360" y="311.5" text-anchor="middle" font-size="13" font-weight="400" fill="#2f3142">DistributedCache broadcasts</text>
<text x="360" y="328.5" text-anchor="middle" font-size="13" font-weight="400" fill="#2f3142">instruction</text>
<rect x="205" y="402" width="310" height="64" rx="10" fill="#f3f4fb" stroke="none" stroke-width="0" filter="url(#soft)"/>
<rect x="205" y="402" width="6" height="64" rx="3" fill="url(#lineGrad)"/>
<text x="360" y="429.5" text-anchor="middle" font-size="13" font-weight="400" fill="#2f3142">Each server handles indexing</text>
<text x="360" y="446.5" text-anchor="middle" font-size="13" font-weight="400" fill="#2f3142">notification</text>
<rect x="205" y="520" width="310" height="64" rx="10" fill="#f3f4fb" stroke="none" stroke-width="0" filter="url(#soft)"/>
<rect x="205" y="520" width="6" height="64" rx="3" fill="url(#lineGrad)"/>
<text x="360" y="547.5" text-anchor="middle" font-size="13" font-weight="400" fill="#2f3142">Update, delete, or rebuild</text>
<text x="360" y="564.5" text-anchor="middle" font-size="13" font-weight="400" fill="#2f3142">affected index entries</text>
</svg>
