<svg viewBox="0 0 920 540" xmlns="http://www.w3.org/2000/svg" font-family="-apple-system, BlinkMacSystemFont, 'Segoe UI', Roboto, sans-serif">
  <defs>
    <linearGradient id="lineGrad" x1="0" y1="0" x2="0" y2="1">
      <stop offset="0%" stop-color="#667eea"/>
      <stop offset="100%" stop-color="#764ba2"/>
    </linearGradient>
    <filter id="soft" x="-20%" y="-20%" width="140%" height="140%">
      <feDropShadow dx="0" dy="2" stdDeviation="4" flood-color="#667eea" flood-opacity="0.14"/>
    </filter>
    <marker id="arrow" viewBox="0 0 10 10" refX="8" refY="5" markerWidth="7" markerHeight="7" orient="auto-start-reverse">
      <path d="M0,0 L10,5 L0,10 z" fill="#9aa0c4"/>
    </marker>
  </defs>

  <rect width="920" height="540" fill="white"/>
  <text x="460" y="38" text-anchor="middle" font-size="18" font-weight="700" fill="#2f3142">Publishing a referenced item evicts both cached CDA responses</text>

  <rect x="46" y="82" width="248" height="222" rx="12" fill="#eef5ff" stroke="#dde1f2" stroke-width="1.5"/>
  <text x="66" y="110" font-size="14" font-weight="700" fill="#667eea">Content tree</text>

  <rect x="78" y="134" width="184" height="58" rx="10" fill="#f3f4fb" filter="url(#soft)"/>
  <rect x="78" y="134" width="6" height="58" rx="3" fill="url(#lineGrad)"/>
  <text x="170" y="158" text-anchor="middle" font-size="13" font-weight="700" fill="#2f3142">Page A</text>
  <text x="170" y="176" text-anchor="middle" font-size="12" fill="#6b708c">has picker to Page B</text>

  <rect x="78" y="226" width="184" height="58" rx="10" fill="#f3f4fb" filter="url(#soft)"/>
  <rect x="78" y="226" width="6" height="58" rx="3" fill="url(#lineGrad)"/>
  <text x="170" y="250" text-anchor="middle" font-size="13" font-weight="700" fill="#2f3142">Page B</text>
  <text x="170" y="268" text-anchor="middle" font-size="12" fill="#6b708c">published</text>

  <path d="M170,192 V218" stroke="#9aa0c4" stroke-width="2" fill="none" marker-end="url(#arrow)"/>
  <rect x="122" y="199" width="96" height="22" rx="11" fill="white"/>
  <text x="170" y="214" text-anchor="middle" font-size="11" fill="#667eea">picker relation</text>

  <rect x="342" y="104" width="238" height="86" rx="12" fill="#f3f4fb" filter="url(#soft)"/>
  <rect x="342" y="104" width="6" height="86" rx="3" fill="url(#lineGrad)"/>
  <text x="461" y="134" text-anchor="middle" font-size="13" font-weight="700" fill="#2f3142">Relations table</text>
  <text x="461" y="158" text-anchor="middle" font-size="12" fill="#4b4d60">RelatedDocument</text>
  <text x="461" y="176" text-anchor="middle" font-size="12" fill="#4b4d60">parent=A, child=B</text>

  <rect x="342" y="248" width="238" height="78" rx="12" fill="#fff7e8" stroke="#e2b568" filter="url(#soft)"/>
  <rect x="342" y="248" width="6" height="78" rx="3" fill="#d39b3d"/>
  <text x="461" y="276" text-anchor="middle" font-size="13" font-weight="700" fill="#2f3142">Eviction handler</text>
  <text x="461" y="300" text-anchor="middle" font-size="12" fill="#4b4d60">changed key is B</text>

  <rect x="646" y="82" width="228" height="222" rx="12" fill="#eef5ff" stroke="#dde1f2" stroke-width="1.5"/>
  <text x="666" y="110" font-size="14" font-weight="700" fill="#667eea">CDA output cache</text>

  <rect x="676" y="134" width="168" height="58" rx="10" fill="#f3f4fb" filter="url(#soft)"/>
  <rect x="676" y="134" width="6" height="58" rx="3" fill="url(#lineGrad)"/>
  <text x="760" y="158" text-anchor="middle" font-size="13" font-weight="700" fill="#2f3142">cached response A</text>
  <text x="760" y="176" text-anchor="middle" font-size="12" fill="#6b708c">tag content-A</text>

  <rect x="676" y="226" width="168" height="58" rx="10" fill="#f3f4fb" filter="url(#soft)"/>
  <rect x="676" y="226" width="6" height="58" rx="3" fill="url(#lineGrad)"/>
  <text x="760" y="250" text-anchor="middle" font-size="13" font-weight="700" fill="#2f3142">cached response B</text>
  <text x="760" y="268" text-anchor="middle" font-size="12" fill="#6b708c">tag content-B</text>

  <path d="M262,163 H334" stroke="#9aa0c4" stroke-width="2" fill="none" marker-end="url(#arrow)"/>
  <text x="300" y="152" text-anchor="middle" font-size="11" fill="#667eea">save picker</text>

  <path d="M262,255 H334" stroke="#9aa0c4" stroke-width="2" fill="none" marker-end="url(#arrow)"/>
  <text x="302" y="244" text-anchor="middle" font-size="11" fill="#d39b3d">publish B</text>

  <path d="M580,287 C630,282 654,268 676,255" stroke="#9aa0c4" stroke-width="2" fill="none" marker-end="url(#arrow)"/>
  <text x="638" y="286" text-anchor="middle" font-size="11" fill="#667eea">evict tag B</text>

  <path d="M461,248 V198" stroke="#9aa0c4" stroke-width="2" fill="none" marker-end="url(#arrow)"/>
  <rect x="376" y="211" width="170" height="24" rx="12" fill="white"/>
  <text x="461" y="228" text-anchor="middle" font-size="11" fill="#667eea">ask: who references B?</text>

  <path d="M580,147 C628,140 654,144 676,163" stroke="#9aa0c4" stroke-width="2" fill="none" marker-end="url(#arrow)"/>
  <text x="638" y="134" text-anchor="middle" font-size="11" fill="#667eea">parent A found, evict tag A</text>

  <rect x="196" y="380" width="528" height="58" rx="14" fill="white" stroke="#dde1f2"/>
  <text x="460" y="405" text-anchor="middle" font-size="13" font-weight="700" fill="#2f3142">Why this matters</text>
  <text x="460" y="426" text-anchor="middle" font-size="12" fill="#6b708c">Page A can become stale when Page B changes, even if Page A itself was not published.</text>
</svg>
