<svg viewBox="0 0 620 372" xmlns="http://www.w3.org/2000/svg" font-family="-apple-system, BlinkMacSystemFont, 'Segoe UI', Roboto, sans-serif">
  <defs>
    <linearGradient id="lineGrad" x1="0" y1="0" x2="0" y2="1">
      <stop offset="0%" stop-color="#e35aa0"/>
      <stop offset="100%" stop-color="#b83a86"/>
    </linearGradient>
    <filter id="soft" x="-20%" y="-20%" width="140%" height="140%">
      <feDropShadow dx="0" dy="2" stdDeviation="4" flood-color="#e35aa0" flood-opacity="0.14"/>
    </filter>
    <marker id="arrow" viewBox="0 0 10 10" refX="8" refY="5" markerWidth="7" markerHeight="7" orient="auto-start-reverse">
      <path d="M0,0 L10,5 L0,10 z" fill="#cf95b6"/>
    </marker>
  </defs>
  <rect width="620" height="372" fill="white"/>
<rect x="10" y="34" width="120" height="44" rx="10" fill="#fdf1f7" filter="url(#soft)"/>
<text x="70" y="60" text-anchor="middle" font-size="12" font-weight="600" fill="#2f3142">Editor</text>
<path d="M70,78 V352" stroke="#f5d9e8" stroke-width="2" stroke-dasharray="6 6"/>
<rect x="164" y="34" width="120" height="44" rx="10" fill="#fdf1f7" filter="url(#soft)"/>
<text x="224" y="60" text-anchor="middle" font-size="12" font-weight="600" fill="#2f3142">Umbraco</text>
<path d="M224,78 V352" stroke="#f5d9e8" stroke-width="2" stroke-dasharray="6 6"/>
<rect x="318" y="34" width="120" height="44" rx="10" fill="#fdf1f7" filter="url(#soft)"/>
<text x="378" y="60" text-anchor="middle" font-size="12" font-weight="600" fill="#2f3142">RuntimeCache</text>
<path d="M378,78 V352" stroke="#f5d9e8" stroke-width="2" stroke-dasharray="6 6"/>
<rect x="472" y="34" width="120" height="44" rx="10" fill="#fdf1f7" filter="url(#soft)"/>
<text x="532" y="60" text-anchor="middle" font-size="12" font-weight="600" fill="#2f3142">Next request</text>
<path d="M532,78 V352" stroke="#f5d9e8" stroke-width="2" stroke-dasharray="6 6"/>
<path d="M70,114 H224" stroke="#cf95b6" stroke-width="2" fill="none" marker-end="url(#arrow)"/>
<text x="147" y="104" text-anchor="middle" font-size="11" font-weight="400" fill="#2f3142">Publish blog post</text>
<path d="M224,148 H378" stroke="#cf95b6" stroke-width="2" fill="none" marker-end="url(#arrow)"/>
<text x="301" y="138" text-anchor="middle" font-size="11" font-weight="400" fill="#2f3142">ClearByKey(&quot;blogTags&quot;)</text>
<path d="M532,182 H378" stroke="#cf95b6" stroke-width="2" fill="none" marker-end="url(#arrow)"/>
<text x="455" y="172" text-anchor="middle" font-size="11" font-weight="400" fill="#2f3142">Request blogTags</text>
<path d="M378,216 H532" stroke="#cf95b6" stroke-width="2" stroke-dasharray="5 5" fill="none" marker-end="url(#arrow)"/>
<text x="455" y="206" text-anchor="middle" font-size="11" font-weight="400" fill="#2f3142">Cache miss</text>
<path d="M532,265 h-34 v16 h34" stroke="#cf95b6" stroke-width="2" fill="none" marker-end="url(#arrow)"/>
<text x="488" y="262" text-anchor="end" font-size="11" font-weight="400" fill="#2f3142">Re-read tags from</text>
<text x="488" y="276" text-anchor="end" font-size="11" font-weight="400" fill="#2f3142">source</text>
<path d="M532,334 H378" stroke="#cf95b6" stroke-width="2" fill="none" marker-end="url(#arrow)"/>
<text x="455" y="310" text-anchor="middle" font-size="11" font-weight="400" fill="#2f3142">Store new blogTags</text>
<text x="455" y="324" text-anchor="middle" font-size="11" font-weight="400" fill="#2f3142">value</text>
</svg>
