<svg viewBox="0 0 1134 738" xmlns="http://www.w3.org/2000/svg" font-family="-apple-system, BlinkMacSystemFont, 'Segoe UI', Roboto, sans-serif">
  <defs>
    <linearGradient id="lineGrad" x1="0" y1="0" x2="0" y2="1">
      <stop offset="0%" stop-color="#e35aa0"/>
      <stop offset="100%" stop-color="#b83a86"/>
    </linearGradient>
    <filter id="soft" x="-20%" y="-20%" width="140%" height="140%">
      <feDropShadow dx="0" dy="2" stdDeviation="4" flood-color="#e35aa0" flood-opacity="0.14"/>
    </filter>
    <marker id="arrow" viewBox="0 0 10 10" refX="8" refY="5" markerWidth="7" markerHeight="7" orient="auto-start-reverse">
      <path d="M0,0 L10,5 L0,10 z" fill="#cf95b6"/>
    </marker>
  </defs>
  <rect width="1134" height="738" fill="white"/>
<path d="M567,102 C567,134 567,134 567,166" stroke="#cf95b6" stroke-width="2" fill="none" marker-end="url(#arrow)"/>

<path d="M567,220 C385,220 385,284 203,284" stroke="#cf95b6" stroke-width="2" fill="none" marker-end="url(#arrow)"/>
<text x="385" y="244" text-anchor="middle" font-size="11" font-weight="400" fill="#e35aa0" font-style="italic">Traverse tree + filter</text>
<path d="M358,311 C294,311 294,429 230,429" stroke="#cf95b6" stroke-width="2" fill="none" marker-end="url(#arrow)"/>

<path d="M567,220 C567,252 567,252 567,284" stroke="#cf95b6" stroke-width="2" fill="none" marker-end="url(#arrow)"/>
<text x="567" y="244" text-anchor="middle" font-size="11" font-weight="400" fill="#e35aa0" font-style="italic">Examine query</text>
<path d="M722,311 C658,311 658,434 594,434" stroke="#cf95b6" stroke-width="2" fill="none" marker-end="url(#arrow)"/>

<path d="M722,193 C722,254.5 776,254.5 776,316" stroke="#cf95b6" stroke-width="2" fill="none" marker-end="url(#arrow)"/>
<text x="749" y="246.5" text-anchor="middle" font-size="11" font-weight="400" fill="#e35aa0" font-style="italic">RuntimeCache DTO</text>
<rect x="412" y="48" width="310" height="54" rx="10" fill="#fdf1f7" stroke="none" stroke-width="0" filter="url(#soft)"/>
<rect x="412" y="48" width="6" height="54" rx="3" fill="url(#lineGrad)"/>
<text x="567" y="79" text-anchor="middle" font-size="13" font-weight="400" fill="#2f3142">Need a result list</text>
<rect x="412" y="166" width="310" height="54" rx="27" fill="white" stroke="#e35aa0" stroke-width="2" stroke-dasharray="5 4" filter=""/>

<text x="567" y="197" text-anchor="middle" font-size="13" font-weight="600" fill="#2f3142">How are you getting it?</text>
<rect x="48" y="284" width="310" height="54" rx="10" fill="#fdf1f7" stroke="none" stroke-width="0" filter="url(#soft)"/>
<rect x="48" y="284" width="6" height="54" rx="3" fill="url(#lineGrad)"/>
<text x="203" y="315" text-anchor="middle" font-size="13" font-weight="400" fill="#2f3142">Simple to write</text>
<rect x="230" y="402" width="310" height="54" rx="10" fill="#fdf1f7" stroke="none" stroke-width="0" filter="url(#soft)"/>
<rect x="230" y="402" width="6" height="54" rx="3" fill="url(#lineGrad)"/>
<text x="385" y="433" text-anchor="middle" font-size="13" font-weight="400" fill="#2f3142">Can become expensive at scale</text>
<rect x="412" y="284" width="310" height="54" rx="10" fill="#fdf1f7" stroke="none" stroke-width="0" filter="url(#soft)"/>
<rect x="412" y="284" width="6" height="54" rx="3" fill="url(#lineGrad)"/>
<text x="567" y="315" text-anchor="middle" font-size="13" font-weight="400" fill="#2f3142">Fast and scalable</text>
<rect x="594" y="402" width="310" height="64" rx="10" fill="#fdf1f7" stroke="none" stroke-width="0" filter="url(#soft)"/>
<rect x="594" y="402" width="6" height="64" rx="3" fill="url(#lineGrad)"/>
<text x="749" y="429.5" text-anchor="middle" font-size="13" font-weight="400" fill="#2f3142">Even better with smaller index</text>
<text x="749" y="446.5" text-anchor="middle" font-size="13" font-weight="400" fill="#2f3142">and optimised query</text>
<rect x="776" y="284" width="310" height="64" rx="10" fill="#fdf1f7" stroke="none" stroke-width="0" filter="url(#soft)"/>
<rect x="776" y="284" width="6" height="64" rx="3" fill="url(#lineGrad)"/>
<text x="931" y="311.5" text-anchor="middle" font-size="13" font-weight="400" fill="#2f3142">Great for menu, footer,</text>
<text x="931" y="328.5" text-anchor="middle" font-size="13" font-weight="400" fill="#2f3142">listings</text>
</svg>
