<svg viewBox="0 0 880 400" xmlns="http://www.w3.org/2000/svg" font-family="-apple-system, BlinkMacSystemFont, 'Segoe UI', Roboto, sans-serif">
  <defs>
    <linearGradient id="lineGrad" x1="0" y1="0" x2="0" y2="1">
      <stop offset="0%" stop-color="#e35aa0"/>
      <stop offset="100%" stop-color="#b83a86"/>
    </linearGradient>
    <filter id="soft" x="-20%" y="-20%" width="140%" height="140%">
      <feDropShadow dx="0" dy="2" stdDeviation="4" flood-color="#e35aa0" flood-opacity="0.14"/>
    </filter>
    <marker id="arrow" viewBox="0 0 10 10" refX="8" refY="5" markerWidth="7" markerHeight="7" orient="auto-start-reverse">
      <path d="M0,0 L10,5 L0,10 z" fill="#cf95b6"/>
    </marker>
  </defs>

  <rect width="880" height="400" fill="white"/>
  <text x="440" y="38" text-anchor="middle" font-size="18" font-weight="700" fill="#2f3142">Content change becomes a cache refresher instruction</text>

  <rect x="48" y="134" width="170" height="64" rx="11" fill="#fdf1f7" filter="url(#soft)"/>
  <rect x="48" y="134" width="6" height="64" rx="3" fill="url(#lineGrad)"/>
  <text x="133" y="161" text-anchor="middle" font-size="13" font-weight="700" fill="#2f3142">Content saved</text>
  <text x="133" y="181" text-anchor="middle" font-size="12" fill="#6b708c">local event</text>

  <rect x="280" y="134" width="210" height="64" rx="11" fill="#fdf1f7" filter="url(#soft)"/>
  <rect x="280" y="134" width="6" height="64" rx="3" fill="url(#lineGrad)"/>
  <text x="385" y="161" text-anchor="middle" font-size="13" font-weight="700" fill="#2f3142">DistributedCache</text>
  <text x="385" y="181" text-anchor="middle" font-size="12" fill="#6b708c">queues Refresh()</text>

  <rect x="560" y="134" width="230" height="64" rx="11" fill="#fdf1f7" filter="url(#soft)"/>
  <rect x="560" y="134" width="6" height="64" rx="3" fill="url(#lineGrad)"/>
  <text x="675" y="161" text-anchor="middle" font-size="13" font-weight="700" fill="#2f3142">IServerMessenger</text>
  <text x="675" y="181" text-anchor="middle" font-size="12" fill="#6b708c">broadcasts to all servers</text>

  <path d="M218,166 H272" stroke="#cf95b6" stroke-width="2" fill="none" marker-end="url(#arrow)"/>
  <path d="M490,166 H552" stroke="#cf95b6" stroke-width="2" fill="none" marker-end="url(#arrow)"/>

  <rect x="432" y="256" width="186" height="74" rx="11" fill="#fdeff6" stroke="#f5d9e8" stroke-width="1.5"/>
  <text x="525" y="284" text-anchor="middle" font-size="13" font-weight="700" fill="#2f3142">Server A</text>
  <text x="525" y="306" text-anchor="middle" font-size="12" fill="#4b4d60">ICacheRefresher.Refresh(id)</text>

  <rect x="654" y="256" width="186" height="74" rx="11" fill="#fdeff6" stroke="#f5d9e8" stroke-width="1.5"/>
  <text x="747" y="284" text-anchor="middle" font-size="13" font-weight="700" fill="#2f3142">Server B</text>
  <text x="747" y="306" text-anchor="middle" font-size="12" fill="#4b4d60">ICacheRefresher.Refresh(id)</text>

  <path d="M675,198 C640,224 590,238 525,256" stroke="#cf95b6" stroke-width="2" fill="none" marker-end="url(#arrow)"/>
  <path d="M675,198 C700,224 728,238 747,256" stroke="#cf95b6" stroke-width="2" fill="none" marker-end="url(#arrow)"/>

  <rect x="438" y="338" width="396" height="28" rx="14" fill="white" stroke="#f5d9e8"/>
  <text x="636" y="357" text-anchor="middle" font-size="12" fill="#e35aa0">each server clears its own local HybridCache entry</text>
</svg>
