<svg viewBox="0 0 630 469" xmlns="http://www.w3.org/2000/svg" font-family="-apple-system, BlinkMacSystemFont, 'Segoe UI', Roboto, sans-serif">
  <defs>
    <linearGradient id="lineGrad" x1="0" y1="0" x2="0" y2="1">
      <stop offset="0%" stop-color="#e35aa0"/>
      <stop offset="100%" stop-color="#b83a86"/>
    </linearGradient>
    <filter id="soft" x="-20%" y="-20%" width="140%" height="140%">
      <feDropShadow dx="0" dy="2" stdDeviation="4" flood-color="#e35aa0" flood-opacity="0.14"/>
    </filter>
    <marker id="arrow" viewBox="0 0 10 10" refX="8" refY="5" markerWidth="7" markerHeight="7" orient="auto-start-reverse">
      <path d="M0,0 L10,5 L0,10 z" fill="#cf95b6"/>
    </marker>
  </defs>
  <rect width="630" height="469" fill="white"/>
<rect x="10" y="34" width="127" height="44" rx="10" fill="#fdf1f7" filter="url(#soft)"/>
<text x="73.5" y="60" text-anchor="middle" font-size="12" font-weight="600" fill="#2f3142">Visitor</text>
<path d="M73.5,78 V449" stroke="#f5d9e8" stroke-width="2" stroke-dasharray="6 6"/>
<rect x="171" y="34" width="127" height="44" rx="10" fill="#fdf1f7" filter="url(#soft)"/>
<text x="234.5" y="60" text-anchor="middle" font-size="12" font-weight="600" fill="#2f3142">CDN</text>
<path d="M234.5,78 V449" stroke="#f5d9e8" stroke-width="2" stroke-dasharray="6 6"/>
<rect x="332" y="34" width="127" height="44" rx="10" fill="#fdf1f7" filter="url(#soft)"/>
<text x="395.5" y="60" text-anchor="middle" font-size="12" font-weight="600" fill="#2f3142">Umbraco origin</text>
<path d="M395.5,78 V449" stroke="#f5d9e8" stroke-width="2" stroke-dasharray="6 6"/>
<rect x="493" y="34" width="127" height="44" rx="10" fill="#fdf1f7" filter="url(#soft)"/>
<text x="556.5" y="60" text-anchor="middle" font-size="12" font-weight="600" fill="#2f3142">Media storage</text>
<path d="M556.5,78 V449" stroke="#f5d9e8" stroke-width="2" stroke-dasharray="6 6"/>
<path d="M73.5,114 H234.5" stroke="#cf95b6" stroke-width="2" fill="none" marker-end="url(#arrow)"/>
<text x="154" y="104" text-anchor="middle" font-size="11" font-weight="400" fill="#2f3142">Request media URL</text>
<rect x="51.5" y="127" width="527" height="34" rx="8" fill="white" stroke="#f5d9e8"/>
<text x="65.5" y="148" font-size="11" font-weight="700" fill="#e35aa0">ALT</text>
<text x="315" y="148" text-anchor="middle" font-size="11" font-weight="400" fill="#6b708c">CDN hit</text>
<path d="M234.5,192 H73.5" stroke="#cf95b6" stroke-width="2" stroke-dasharray="5 5" fill="none" marker-end="url(#arrow)"/>
<text x="154" y="182" text-anchor="middle" font-size="11" font-weight="400" fill="#2f3142">Return cached response</text>
<rect x="51.5" y="205" width="527" height="34" rx="8" fill="white" stroke="#f5d9e8"/>
<text x="65.5" y="226" font-size="11" font-weight="700" fill="#e35aa0">ELSE</text>
<text x="315" y="226" text-anchor="middle" font-size="11" font-weight="400" fill="#6b708c">CDN miss</text>
<path d="M234.5,285 H395.5" stroke="#cf95b6" stroke-width="2" fill="none" marker-end="url(#arrow)"/>
<text x="315" y="261" text-anchor="middle" font-size="11" font-weight="400" fill="#2f3142">Request media from</text>
<text x="315" y="275" text-anchor="middle" font-size="11" font-weight="400" fill="#2f3142">origin</text>
<path d="M395.5,334 H556.5" stroke="#cf95b6" stroke-width="2" fill="none" marker-end="url(#arrow)"/>
<text x="476" y="310" text-anchor="middle" font-size="11" font-weight="400" fill="#2f3142">Read original media or</text>
<text x="476" y="324" text-anchor="middle" font-size="11" font-weight="400" fill="#2f3142">generated variant</text>
<path d="M395.5,368 H234.5" stroke="#cf95b6" stroke-width="2" stroke-dasharray="5 5" fill="none" marker-end="url(#arrow)"/>
<text x="315" y="358" text-anchor="middle" font-size="11" font-weight="400" fill="#2f3142">Return response</text>
<path d="M234.5,417 H73.5" stroke="#cf95b6" stroke-width="2" stroke-dasharray="5 5" fill="none" marker-end="url(#arrow)"/>
<text x="154" y="393" text-anchor="middle" font-size="11" font-weight="400" fill="#2f3142">Cache and return</text>
<text x="154" y="407" text-anchor="middle" font-size="11" font-weight="400" fill="#2f3142">response</text>
</svg>
