<svg viewBox="0 0 620 408" xmlns="http://www.w3.org/2000/svg" font-family="-apple-system, BlinkMacSystemFont, 'Segoe UI', Roboto, sans-serif">
  <defs>
    <linearGradient id="lineGrad" x1="0" y1="0" x2="0" y2="1">
      <stop offset="0%" stop-color="#667eea"/>
      <stop offset="100%" stop-color="#764ba2"/>
    </linearGradient>
    <filter id="soft" x="-20%" y="-20%" width="140%" height="140%">
      <feDropShadow dx="0" dy="2" stdDeviation="4" flood-color="#667eea" flood-opacity="0.14"/>
    </filter>
    <marker id="arrow" viewBox="0 0 10 10" refX="8" refY="5" markerWidth="7" markerHeight="7" orient="auto-start-reverse">
      <path d="M0,0 L10,5 L0,10 z" fill="#9aa0c4"/>
    </marker>
  </defs>
  <rect width="620" height="408" fill="white"/>
<rect x="-4" y="34" width="104" height="44" rx="10" fill="#f3f4fb" filter="url(#soft)"/>
<text x="48" y="61" text-anchor="middle" font-size="12" font-weight="600" fill="#2f3142">Content type save</text>
<path d="M48,78 V374" stroke="#dde1f2" stroke-width="2" stroke-dasharray="6 6"/>
<rect x="128" y="34" width="104" height="44" rx="10" fill="#f3f4fb" filter="url(#soft)"/>
<text x="180" y="61" text-anchor="middle" font-size="12" font-weight="600" fill="#2f3142">Cache</text>
<path d="M180,78 V374" stroke="#dde1f2" stroke-width="2" stroke-dasharray="6 6"/>
<rect x="260" y="34" width="104" height="44" rx="10" fill="#f3f4fb" filter="url(#soft)"/>
<text x="312" y="61" text-anchor="middle" font-size="12" font-weight="600" fill="#2f3142">User request</text>
<path d="M312,78 V374" stroke="#dde1f2" stroke-width="2" stroke-dasharray="6 6"/>
<rect x="392" y="34" width="104" height="44" rx="10" fill="#f3f4fb" filter="url(#soft)"/>
<text x="444" y="61" text-anchor="middle" font-size="12" font-weight="600" fill="#2f3142">Background rebuild</text>
<path d="M444,78 V374" stroke="#dde1f2" stroke-width="2" stroke-dasharray="6 6"/>
<path d="M48,118 H180" stroke="#9aa0c4" stroke-width="2" fill="none" marker-end="url(#arrow)"/>
<text x="114" y="107" text-anchor="middle" font-size="11" font-weight="400" fill="#2f3142">Evict relevant cache now</text>
<path d="M312,172 H180" stroke="#9aa0c4" stroke-width="2" fill="none" marker-end="url(#arrow)"/>
<text x="246" y="152.5" text-anchor="middle" font-size="11" font-weight="400" fill="#2f3142">Next request may read older</text>
<text x="246" y="169.5" text-anchor="middle" font-size="11" font-weight="400" fill="#2f3142">serialised data</text>
<path d="M48,226 H444" stroke="#9aa0c4" stroke-width="2" fill="none" marker-end="url(#arrow)"/>
<text x="246" y="215" text-anchor="middle" font-size="11" font-weight="400" fill="#2f3142">Queue deferred rebuild</text>
<path d="M444,280 H180" stroke="#9aa0c4" stroke-width="2" fill="none" marker-end="url(#arrow)"/>
<text x="312" y="269" text-anchor="middle" font-size="11" font-weight="400" fill="#2f3142">Rebuild serialised cache data</text>
<path d="M444,334 H180" stroke="#9aa0c4" stroke-width="2" fill="none" marker-end="url(#arrow)"/>
<text x="312" y="323" text-anchor="middle" font-size="11" font-weight="400" fill="#2f3142">Evict again after rebuild</text>
</svg>
