<svg viewBox="0 0 760 500" xmlns="http://www.w3.org/2000/svg" font-family="-apple-system, BlinkMacSystemFont, 'Segoe UI', Roboto, sans-serif">
  <defs>
    <linearGradient id="lineGradPub" x1="0" y1="0" x2="0" y2="1">
      <stop offset="0%" stop-color="#e35aa0"/>
      <stop offset="100%" stop-color="#b83a86"/>
    </linearGradient>
    <filter id="softPub" x="-20%" y="-20%" width="140%" height="140%">
      <feDropShadow dx="0" dy="2" stdDeviation="4" flood-color="#e35aa0" flood-opacity="0.15"/>
    </filter>
    <marker id="arrowPub" viewBox="0 0 10 10" refX="8" refY="5" markerWidth="7" markerHeight="7" orient="auto-start-reverse">
      <path d="M0,0 L10,5 L0,10 z" fill="#cf95b6"/>
    </marker>
  </defs>

  <rect width="760" height="500" fill="white"/>

  <!-- main spine connectors -->
  <path d="M195,62 V82" stroke="#cf95b6" stroke-width="2" fill="none" marker-end="url(#arrowPub)"/>
  <path d="M195,130 V150" stroke="#cf95b6" stroke-width="2" fill="none" marker-end="url(#arrowPub)"/>
  <path d="M195,198 V218" stroke="#cf95b6" stroke-width="2" fill="none" marker-end="url(#arrowPub)"/>
  <path d="M195,266 V286" stroke="#cf95b6" stroke-width="2" fill="none" marker-end="url(#arrowPub)"/>

  <!-- fan-out connectors from E to the 4 stacked boxes -->
  <path d="M390,310 Q430,310 450,300 T470,270" stroke="#cf95b6" stroke-width="2" fill="none" marker-end="url(#arrowPub)"/>
  <path d="M390,315 Q440,315 470,338" stroke="#cf95b6" stroke-width="2" fill="none" marker-end="url(#arrowPub)"/>
  <path d="M390,320 Q440,320 470,406" stroke="#cf95b6" stroke-width="2" fill="none" marker-end="url(#arrowPub)"/>
  <path d="M390,325 Q430,340 450,420 T470,474" stroke="#cf95b6" stroke-width="2" fill="none" marker-end="url(#arrowPub)"/>

  <text x="440" y="256" font-size="11" fill="#e35aa0" font-style="italic">all happen on every server</text>

  <!-- Row 1 -->
  <rect x="15" y="14" width="360" height="48" rx="10" fill="#fdf1f7" filter="url(#softPub)"/>
  <rect x="15" y="14" width="6" height="48" rx="3" fill="url(#lineGradPub)"/>
  <text x="195" y="43" text-anchor="middle" font-size="13" fill="#333">Editor publishes content</text>

  <!-- Row 2 -->
  <rect x="15" y="82" width="360" height="48" rx="10" fill="#fdf1f7" filter="url(#softPub)"/>
  <rect x="15" y="82" width="6" height="48" rx="3" fill="url(#lineGradPub)"/>
  <text x="195" y="111" text-anchor="middle" font-size="13" fill="#333">Umbraco creates cache refresher payload</text>

  <!-- Row 3 -->
  <rect x="15" y="150" width="360" height="48" rx="10" fill="#fdf1f7" filter="url(#softPub)"/>
  <rect x="15" y="150" width="6" height="48" rx="3" fill="url(#lineGradPub)"/>
  <text x="195" y="179" text-anchor="middle" font-size="13" fill="#333">DistributedCache queues refresh</text>

  <!-- Row 4 -->
  <rect x="15" y="218" width="360" height="48" rx="10" fill="#fdf1f7" filter="url(#softPub)"/>
  <rect x="15" y="218" width="6" height="48" rx="3" fill="url(#lineGradPub)"/>
  <text x="195" y="247" text-anchor="middle" font-size="13" fill="#333">IServerMessenger broadcasts instruction</text>

  <!-- Row 5 -->
  <rect x="15" y="286" width="360" height="48" rx="10" fill="#fdf1f7" filter="url(#softPub)"/>
  <rect x="15" y="286" width="6" height="48" rx="3" fill="url(#lineGradPub)"/>
  <text x="195" y="315" text-anchor="middle" font-size="13" fill="#333">Each server runs the refresher locally</text>

  <!-- fan-out outcome boxes, stacked on the right -->
  <rect x="470" y="248" width="275" height="44" rx="10" fill="white" stroke="#e35aa0" stroke-width="2"/>
  <text x="607" y="275" text-anchor="middle" font-size="12.5" fill="#4a4a4a">Published content cache refreshed or removed</text>

  <rect x="470" y="316" width="275" height="44" rx="10" fill="white" stroke="#e35aa0" stroke-width="2"/>
  <text x="607" y="343" text-anchor="middle" font-size="12.5" fill="#4a4a4a">Routing and navigation caches updated</text>

  <rect x="470" y="384" width="275" height="44" rx="10" fill="white" stroke="#e35aa0" stroke-width="2"/>
  <text x="607" y="411" text-anchor="middle" font-size="12.5" fill="#4a4a4a">Website output cache entries evicted by tag</text>

  <rect x="470" y="452" width="275" height="44" rx="10" fill="white" stroke="#e35aa0" stroke-width="2"/>
  <text x="607" y="479" text-anchor="middle" font-size="12.5" fill="#4a4a4a">Related pages are evicted too</text>
</svg>
